<?xml version="1.0" encoding="utf-8"?>
<!-- Generator: Adobe Illustrator 16.0.0, SVG Export Plug-In . SVG Version: 6.00 Build 0)  -->
<!DOCTYPE svg PUBLIC "-//W3C//DTD SVG 1.1//EN" "http://www.w3.org/Graphics/SVG/1.1/DTD/svg11.dtd">
<svg version="1.1" id="Layer_1" xmlns="http://www.w3.org/2000/svg" xmlns:xlink="http://www.w3.org/1999/xlink" x="0px" y="0px"
	 width="33.5px" height="28.5px" viewBox="-7.939 -7.434 33.5 28.5" enable-background="new -7.939 -7.434 33.5 28.5"
	 xml:space="preserve">
<g>
	<path fill="#00BBD3" d="M7.13,1.445l0.019-0.041C4.342-1.473-3.276-0.131-3.276-0.131v17.078c0,0,0.932-2.111,10.436-2.256V14.68
		L7.131,1.655L7.13,1.445z"/>
	<path fill="#00BBD3" d="M18.531-0.341v10.688l-0.002,0.879l-0.868,0.125c-0.048,0.006-4.269,0.646-6.47,3.344
		c9.291,0.18,10.207,2.328,10.207,2.328V-0.054C21.398-0.054,20.174-0.268,18.531-0.341z"/>
	<path fill="#00BBD3" d="M16.154-0.365v-3.026c-5.473,0.116-7.597,5.045-7.597,5.045l0.005,2l0.023,11.023
		c2.33-3.59,7.569-4.329,7.569-4.329V-0.365z"/>
</g>
</svg>
