<?xml version="1.0" encoding="utf-8"?>
<!-- Generator: Adobe Illustrator 16.0.0, SVG Export Plug-In . SVG Version: 6.00 Build 0)  -->
<!DOCTYPE svg PUBLIC "-//W3C//DTD SVG 1.1//EN" "http://www.w3.org/Graphics/SVG/1.1/DTD/svg11.dtd">
<svg version="1.1" id="Layer_1" xmlns="http://www.w3.org/2000/svg" xmlns:xlink="http://www.w3.org/1999/xlink" x="0px" y="0px"
	 width="1745.895px" height="626.696px" viewBox="0 0 1745.895 626.696" enable-background="new 0 0 1745.895 626.696"
	 xml:space="preserve">
<g>
	<g>
		<g opacity="0.5">
			<rect x="884.49" y="364.774" opacity="0.3" fill="#FFFFFF" width="50.911" height="87.18"/>
			<rect x="1141.101" y="287.081" opacity="0.3" fill="#FFFFFF" width="80.517" height="137.873"/>
			<rect x="1487.653" y="505.575" opacity="0.2" fill="#FFFFFF" width="34.542" height="59.152"/>
			<rect x="223.699" y="231.772" opacity="0.2" fill="#FFFFFF" width="34.542" height="59.15"/>
			<rect x="1665.379" y="427.905" opacity="0.3" fill="#FFFFFF" width="80.516" height="137.875"/>
			<rect x="1264.967" y="440.756" opacity="0.3" fill="#FFFFFF" width="80.516" height="137.873"/>
			<rect x="982.709" y="402.102" opacity="0.5" fill="#FFFFFF" width="120.833" height="87.178"/>
			<rect x="1325.814" y="321.186" opacity="0.5" fill="#FFFFFF" width="120.832" height="87.178"/>
			<rect x="124.252" y="167.405" opacity="0.5" fill="#FFFFFF" width="120.832" height="87.178"/>
			<rect x="1516.326" y="363.528" opacity="0.5" fill="#FFFFFF" width="89.8" height="64.789"/>
			<rect x="965.961" y="293.545" opacity="0.2" fill="#FFFFFF" width="77.164" height="55.674"/>
			<rect x="927.379" y="526.741" opacity="0.2" fill="#FFFFFF" width="77.164" height="55.674"/>
			<rect x="1142.777" y="475.918" opacity="0.2" fill="#FFFFFF" width="94.853" height="68.436"/>
			<rect x="1487.653" y="258.407" opacity="0.2" fill="#FFFFFF" width="94.853" height="68.436"/>
			<rect x="304.487" y="239.403" opacity="0.2" fill="#FFFFFF" width="94.853" height="68.436"/>
			<rect x="1391.209" y="453.987" opacity="0.2" fill="#FFFFFF" width="59.401" height="42.857"/>
			<rect x="1561.226" y="464.692" opacity="0.2" fill="#FFFFFF" width="69.965" height="50.479"/>
		</g>
		<g opacity="0.5">
			<rect x="810.493" y="433.149" opacity="0.3" fill="#FFFFFF" width="50.911" height="87.178"/>
			<rect x="524.277" y="460.149" opacity="0.3" fill="#FFFFFF" width="80.517" height="137.873"/>
			<rect x="223.699" y="320.374" opacity="0.2" fill="#FFFFFF" width="34.542" height="59.154"/>
			<rect y="319.323" opacity="0.3" fill="#FFFFFF" width="80.516" height="137.875"/>
			<rect x="400.412" y="306.473" opacity="0.3" fill="#FFFFFF" width="80.516" height="137.873"/>
			<rect x="642.353" y="395.823" opacity="0.5" fill="#FFFFFF" width="120.833" height="87.178"/>
			<rect x="299.248" y="476.739" opacity="0.5" fill="#FFFFFF" width="120.832" height="87.178"/>
			<rect x="139.769" y="456.784" opacity="0.5" fill="#FFFFFF" width="89.8" height="64.791"/>
			<rect x="702.77" y="535.883" opacity="0.2" fill="#FFFFFF" width="77.164" height="55.672"/>
			<rect x="741.352" y="302.688" opacity="0.2" fill="#FFFFFF" width="77.164" height="55.672"/>
			<rect x="508.265" y="340.749" opacity="0.2" fill="#FFFFFF" width="94.853" height="68.436"/>
			<rect x="163.389" y="558.26" opacity="0.2" fill="#FFFFFF" width="94.853" height="68.436"/>
			<rect x="295.284" y="388.258" opacity="0.2" fill="#FFFFFF" width="59.401" height="42.857"/>
			<rect x="114.704" y="369.932" opacity="0.2" fill="#FFFFFF" width="69.964" height="50.479"/>
		</g>
	</g>
	<g>
		<rect x="1415.278" y="171" opacity="0.3" fill="#FFFFFF" width="72.699" height="114.271"/>
		<rect x="1006.571" y="206.393" opacity="0.3" fill="#FFFFFF" width="114.975" height="180.719"/>
		<rect x="577.353" y="23.184" opacity="0.2" fill="#FFFFFF" width="49.326" height="77.534"/>
		<rect x="257.917" y="21.805" opacity="0.3" fill="#FFFFFF" width="114.974" height="180.719"/>
		<rect x="843.478" y="85.61" opacity="0.3" fill="#FFFFFF" width="87.409" height="137.39"/>
		<rect x="1175.179" y="122.077" opacity="0.5" fill="#FFFFFF" width="172.545" height="114.27"/>
		<rect x="685.233" y="228.137" opacity="0.5" fill="#FFFFFF" width="172.546" height="114.27"/>
		<rect x="457.504" y="201.983" opacity="0.5" fill="#FFFFFF" width="128.231" height="84.924"/>
		<rect x="1261.451" y="305.661" opacity="0.2" fill="#FFFFFF" width="110.189" height="72.975"/>
		<rect x="1316.546" opacity="0.2" fill="#FFFFFF" width="110.188" height="72.974"/>
		<rect x="983.705" y="49.889" opacity="0.2" fill="#FFFFFF" width="135.447" height="89.702"/>
		<rect x="491.231" y="334.993" opacity="0.2" fill="#FFFFFF" width="135.447" height="89.701"/>
		<rect x="679.574" y="112.163" opacity="0.2" fill="#FFFFFF" width="84.823" height="56.176"/>
		<rect x="421.711" y="88.141" opacity="0.2" fill="#FFFFFF" width="99.907" height="66.164"/>
	</g>
</g>
</svg>
