<?xml version="1.0" encoding="utf-8"?>
<!-- Generator: Adobe Illustrator 16.0.0, SVG Export Plug-In . SVG Version: 6.00 Build 0)  -->
<!DOCTYPE svg PUBLIC "-//W3C//DTD SVG 1.1//EN" "http://www.w3.org/Graphics/SVG/1.1/DTD/svg11.dtd">
<svg version="1.1" id="Layer_1" xmlns="http://www.w3.org/2000/svg" xmlns:xlink="http://www.w3.org/1999/xlink" x="0px" y="0px"
	 width="14.444px" height="14.447px" viewBox="1.765 -0.481 14.444 14.447" enable-background="new 1.765 -0.481 14.444 14.447"
	 xml:space="preserve">
<g>
	<g>
		<path fill="#2A838E" d="M7,9.99c-1.398,0-2.712-0.546-3.701-1.535C2.31,7.466,1.765,6.152,1.765,4.754S2.31,2.041,3.299,1.052
			C4.287,0.064,5.601-0.481,7-0.481c1.398,0,2.711,0.544,3.702,1.533c0.99,0.989,1.534,2.304,1.534,3.702s-0.545,2.712-1.534,3.701
			C9.711,9.444,8.398,9.99,7,9.99z M7,0.519c-1.131,0-2.194,0.44-2.994,1.24c-0.8,0.8-1.241,1.864-1.241,2.995
			s0.44,2.194,1.241,2.994C4.807,8.548,5.869,8.99,7,8.99s2.194-0.441,2.995-1.242c0.799-0.799,1.24-1.863,1.24-2.994
			s-0.441-2.194-1.24-2.995C9.194,0.959,8.13,0.519,7,0.519z"/>
	</g>
	<g>
		
			<rect x="9.204" y="10.357" transform="matrix(-0.707 -0.7072 0.7072 -0.707 14.6849 27.7981)" fill="#2A838E" width="7.793" height="1"/>
	</g>
</g>
</svg>
