<?xml version="1.0" encoding="utf-8"?>
<!-- Generator: Adobe Illustrator 16.0.0, SVG Export Plug-In . SVG Version: 6.00 Build 0)  -->
<!DOCTYPE svg PUBLIC "-//W3C//DTD SVG 1.1//EN" "http://www.w3.org/Graphics/SVG/1.1/DTD/svg11.dtd">
<svg version="1.1" id="Layer_1" xmlns="http://www.w3.org/2000/svg" xmlns:xlink="http://www.w3.org/1999/xlink" x="0px" y="0px"
	 width="85.141px" height="74.214px" viewBox="-33.51 -30.291 85.141 74.214" enable-background="new -33.51 -30.291 85.141 74.214"
	 xml:space="preserve">
<g>
	<g opacity="0.2">
		<path fill="#FFFFFF" d="M2.4-9.833l0.065-0.144c-9.688-9.927-35.975-5.297-35.975-5.297v58.932c0,0,3.217-7.285,36.009-7.785
			v-0.041L2.403-9.107L2.4-9.833z"/>
		<path fill="#FFFFFF" d="M41.736-15.997v36.881l-0.004,3.033l-3,0.435c-0.157,0.021-14.724,2.228-22.317,11.535
			c32.061,0.62,35.217,8.036,35.217,8.036v-58.929C51.631-15.006,47.409-15.744,41.736-15.997z"/>
		<path fill="#FFFFFF" d="M33.536-16.082v-10.442C14.652-26.125,7.324-9.115,7.324-9.115l0.014,6.902L7.42,35.824
			c8.036-12.387,26.116-14.939,26.116-14.939V-16.082z"/>
	</g>
	<g>
		<path fill="#FFFFFF" d="M2.4-13.6l0.065-0.144c-9.688-9.927-35.975-5.297-35.975-5.297V39.89c0,0,3.217-7.285,36.009-7.784v-0.041
			L2.403-12.874L2.4-13.6z"/>
		<path fill="#FFFFFF" d="M41.736-19.764v36.883l-0.004,3.031l-3,0.436c-0.157,0.02-14.724,2.227-22.317,11.535
			c32.061,0.621,35.217,8.035,35.217,8.035v-58.929C51.631-18.772,47.409-19.511,41.736-19.764z"/>
		<path fill="#FFFFFF" d="M33.536-19.849v-10.442C14.652-29.892,7.324-12.882,7.324-12.882L7.338-5.98L7.42,32.058
			c8.036-12.387,26.116-14.939,26.116-14.939V-19.849z"/>
	</g>
</g>
</svg>
