<?xml version="1.0" encoding="utf-8"?>
<!-- Generator: Adobe Illustrator 16.0.0, SVG Export Plug-In . SVG Version: 6.00 Build 0)  -->
<!DOCTYPE svg PUBLIC "-//W3C//DTD SVG 1.1//EN" "http://www.w3.org/Graphics/SVG/1.1/DTD/svg11.dtd">
<svg version="1.1" id="Layer_1" xmlns="http://www.w3.org/2000/svg" xmlns:xlink="http://www.w3.org/1999/xlink" x="0px" y="0px"
	 width="30.357px" height="30.357px" viewBox="0 0 30.357 30.357" enable-background="new 0 0 30.357 30.357" xml:space="preserve">
<g>
	<circle fill="#FFFFFF" cx="15.179" cy="15.18" r="15.179"/>
	<path fill="#333333" d="M13.494,23.357c0-2.346,0-5.328,0-7.664c0-0.07,0-0.07-0.069-0.07c-0.761,0-1.519,0-2.279,0
		c-0.078,0-0.078-0.002-0.078-0.082c0-0.889,0-1.783,0-2.67c0-0.078,0-0.078,0.078-0.078c0.758,0,1.514,0,2.271,0
		c0.077,0,0.077,0,0.077-0.072c0-0.645,0-1.287,0-1.928c0-0.256,0.015-0.512,0.046-0.764c0.04-0.285,0.102-0.566,0.195-0.836
		c0.246-0.697,0.668-1.262,1.299-1.652c0.57-0.354,1.198-0.508,1.86-0.531c0.356-0.014,0.712,0.002,1.067,0.008
		c0.141,0.002,0.283,0.012,0.425,0.02c0.211,0.014,0.424,0.029,0.637,0.045c0.089,0.01,0.179,0.021,0.268,0.031
		c0,0.844,0,1.682,0,2.527c-0.025,0-0.046-0.002-0.067,0c-0.533,0.002-1.066,0-1.602,0.01c-0.151,0.004-0.305,0.031-0.451,0.068
		c-0.332,0.086-0.567,0.287-0.675,0.625c-0.05,0.158-0.077,0.322-0.077,0.486c-0.004,0.629-0.003,1.258-0.003,1.891
		c0,0.072,0,0.072,0.078,0.072c0.867,0,1.737,0,2.606,0c0.017,0,0.033,0,0.053,0c0.04-0.002,0.049,0.02,0.042,0.053l-0.354,2.709
		c-0.009,0.068-0.011,0.068-0.081,0.068c-0.76,0-1.518,0-2.275,0c-0.069,0-0.069,0-0.069,0.064c0,2.34,0,5.32,0,7.67H13.494z"/>
</g>
</svg>
