<?xml version="1.0" encoding="utf-8"?>
<!-- Generator: Adobe Illustrator 16.0.0, SVG Export Plug-In . SVG Version: 6.00 Build 0)  -->
<!DOCTYPE svg PUBLIC "-//W3C//DTD SVG 1.1//EN" "http://www.w3.org/Graphics/SVG/1.1/DTD/svg11.dtd">
<svg version="1.1" id="Layer_1" xmlns="http://www.w3.org/2000/svg" xmlns:xlink="http://www.w3.org/1999/xlink" x="0px" y="0px"
	 width="827.157px" height="385.992px" viewBox="294.072 202.19 827.157 385.992"
	 enable-background="new 294.072 202.19 827.157 385.992" xml:space="preserve">
<g>
	<path fill="#F79733" d="M435.878,410.705c-0.193-0.731,0.578,0.203,0.992,0.467c0.434,0.276,0.848,0.662,1.275,0.953
		c1.545,1.049,2.922,1.837,4.008,3.495c2.064,3.154,3.398,6.271,7.475,7.301c-0.506-0.927-0.723-2.203-0.562-3.247
		c1.689,0.671,3.094,2.555,4.715,3.512c1.414,0.834,3.053,1.393,4.758,1.448c4.264,0.139,7.432-3.195,12.043-2.409
		c-1.137,0.008-2.057-0.572-3.113-0.855c-1.744-0.469-3.066-0.25-4.562-1.441c-1.695-1.348-2.502-3.345-3.395-5.352
		c1.869-0.251,3.521,1.086,5.225,1.447c-1.627-2.435-2.166-5.496-4.203-7.656c-2.166-2.296-4.832-2.979-7.902-3.07
		c-6.189-0.184-11.148,5.22-17.467,4.502L435.878,410.705z"/>
	<g>
		<path fill="#4E335E" d="M317.203,297.189c0,0-0.215,0.069-0.632,0.203c-0.227,0.067-0.714,0.14-1.185,0.19
			c-0.421-0.013-0.925,0.015-1.428-0.097c-2.11-0.312-4.505-1.697-7.095-3.581c-0.649-0.464-1.324-0.966-2.005-1.433
			c-0.367-0.248-0.743-0.5-1.126-0.759c-0.376-0.26-0.76-0.525-1.152-0.796c-0.821-0.701-1.727-1.48-2.376-2.389
			c-0.174-0.222-0.369-0.443-0.528-0.673c-0.148-0.231-0.299-0.466-0.45-0.701c-0.15-0.235-0.303-0.474-0.456-0.714l-0.25-0.395
			l-0.201-0.359c-0.531-0.975-1.116-1.904-1.625-3.062c-0.131-0.279-0.264-0.56-0.396-0.843l-0.2-0.427l-0.101-0.214l-0.025-0.054
			l-0.045-0.119l-0.038-0.105c-0.202-0.566-0.407-1.141-0.616-1.723c-0.229-0.551-0.365-1.249-0.531-1.908
			c-0.148-0.666-0.358-1.344-0.409-2.023c-0.082-0.681-0.165-1.369-0.249-2.065c-0.004-0.703-0.007-1.414-0.011-2.132
			c0.108-2.867,0.763-5.852,2.105-8.656c0.378-0.678,0.759-1.361,1.143-2.05l0.072-0.129l0.116-0.167l0.164-0.226l0.33-0.453
			l0.668-0.913c0.554-0.604,1.085-1.265,1.682-1.822c0.619-0.527,1.181-1.133,1.873-1.585c2.66-1.976,5.785-3.325,9.239-3.913
			c0.819-0.092,1.597-0.238,2.463-0.285c0.858-0.043,1.753-0.112,2.576-0.111c1.687-0.04,3.349-0.019,4.981-0.146
			c3.271-0.17,6.435-1.144,8.926-3.294c2.51-2.091,4.016-5.236,5.09-8.53c1.088-3.317,1.794-6.854,3.041-10.325
			c0.629-1.729,1.38-3.455,2.443-5.025c1.053-1.568,2.387-2.992,3.969-4.059c0.424-0.252,0.756-0.518,1.256-0.755l1.219-0.591
			c0.379-0.219,0.896-0.332,1.346-0.492c0.467-0.142,0.93-0.327,1.4-0.377c1.865-0.439,3.797-0.314,5.637-0.023
			c3.705,0.691,6.999,2.484,9.955,4.535c2.952,2.065,5.588,4.531,8.074,6.931c2.499,2.337,5.451,4.103,8.515,5.409
			c6.177,2.546,12.923,3.063,18.915,1.715c6.088-1.221,11.671-3.006,16.523-5.399c4.852-2.368,8.999-5.199,11.982-8.41
			c2.875-3.32,4.304-6.991,5.262-9.974c0.937-3.018,1.383-5.469,1.679-7.135c0.289-1.67,0.407-2.565,0.407-2.565
			s-0.106,0.897-0.373,2.571c-0.275,1.67-0.689,4.128-1.589,7.167c-0.926,3.005-2.302,6.707-5.181,10.12
			c-2.971,3.286-7.131,6.201-11.977,8.645c-4.844,2.473-10.51,4.361-16.583,5.659c-6.106,1.457-13.028,1.025-19.425-1.515
			c-3.175-1.305-6.254-3.091-8.887-5.488c-2.559-2.406-5.13-4.745-8.039-6.728c-2.891-1.955-6.076-3.611-9.495-4.198
			c-1.696-0.243-3.442-0.338-5.105,0.082c-0.432,0.049-0.809,0.219-1.205,0.34c-0.396,0.15-0.782,0.207-1.19,0.445l-1.212,0.607
			c-0.319,0.147-0.705,0.443-1.056,0.656c-2.834,1.961-4.609,5.08-5.719,8.398c-1.151,3.325-1.812,6.859-2.893,10.32
			c-1.07,3.426-2.657,6.968-5.528,9.436c-0.349,0.307-0.705,0.608-1.108,0.88l-0.584,0.413l-0.559,0.334
			c-0.207,0.117-0.322,0.21-0.605,0.346l-0.633,0.282l-1.266,0.559c-0.863,0.292-1.75,0.528-2.626,0.729
			c-0.881,0.113-1.771,0.321-2.636,0.349c-1.745,0.157-3.447,0.155-5.087,0.217c-0.841,0.011-1.599,0.086-2.386,0.13
			c-0.778,0.047-1.616,0.212-2.416,0.311c-2.969,0.549-5.85,1.819-8.142,3.588c-0.611,0.403-1.094,0.953-1.638,1.421
			c-0.515,0.493-0.926,1.035-1.396,1.537l-0.651,0.914l-0.323,0.458l-0.162,0.228l-0.04,0.058c0.003-0.005-0.063,0.089-0.003,0.005
			l-0.062,0.115c-0.331,0.613-0.66,1.222-0.985,1.824c-1.149,2.492-1.691,5.128-1.758,7.671c0.011,0.637,0.021,1.268,0.032,1.892
			c0.083,0.619,0.167,1.231,0.249,1.838c0.049,0.618,0.242,1.168,0.372,1.736c0.151,0.566,0.237,1.105,0.489,1.697
			c0.216,0.579,0.429,1.15,0.639,1.715l0.039,0.105c-0.005-0.012,0.04,0.102-0.006-0.014l0.023,0.048l0.093,0.19l0.186,0.379
			c0.122,0.253,0.244,0.504,0.365,0.752c0.436,0.987,1.071,1.983,1.606,2.934l0.206,0.356l0.192,0.29
			c0.142,0.215,0.282,0.428,0.421,0.639s0.276,0.42,0.412,0.627c0.142,0.199,0.298,0.363,0.442,0.544
			c0.565,0.768,1.199,1.259,1.812,1.809c0.396,0.266,0.782,0.526,1.162,0.781c0.17,0.114,0.339,0.227,0.505,0.338
			c0.203,0.13,0.403,0.259,0.602,0.386c0.767,0.512,1.434,0.998,2.078,1.444c2.523,1.805,4.604,2.854,5.893,2.993
			c0.326,0.077,0.582,0.03,0.803,0.053c0.166-0.05,0.229-0.002,0.421-0.058c0.415-0.139,0.629-0.21,0.629-0.21L317.203,297.189z"/>
	</g>
	<path fill="#D0503D" d="M344.036,266.301c1.781-0.255,2.281-4.743,2.543-6.061c0.459-2.325,0.602-4.61,0.693-7.004
		c0.104-2.655,0.537-5.408,1.223-7.959c0.689-2.565,1.975-6.125,3.932-8.038c-0.293,2.059-1.125,4.667,0.729,6.098
		c0.75,0.577,1.66,0.829,2.637,0.816c1.172-0.013,2.676-1.438,3.719-0.974c-0.65,1.569-1.262,3.114,0.279,4.502
		c1.932,1.738,5.455,0.864,7.797,1.743c-3.611,1.67-3.1,3.94-4.533,7.098c-0.912,2.005-1.982,3.594-3.508,5.197
		c-1.277,1.342-2.705,1.98-4.299,2.808c-2.301,1.191-4.221,2.775-6.912,2.468"/>
	<path fill="#F05C47" d="M1085.285,450.788c-4.754,7.836-34.627,75.227-118.922,95.962c-41.664,10.251-99.746,8.688-138.623-1.013
		c-39.562-9.874-75.941-34.535-91.761-74.695c-9.133-23.189-7.42-49.759-6.215-74.188c1-20.307-4.201-43.324-15.676-60.102
		c-27.857-40.726-93.439-19.808-130.748-7.608c-21.014,6.87-42.193,15.349-63.879,21.148c-17.234,4.608-48.756,3.64-59.992-9.63
		c-18.043-21.309-9.4-58.673-33.109-75.955c-9.303-6.781-21.076-10.826-32.631-10.533c-12.285,0.31-22.656,7.37-34.719,8.482
		c-10.285,0.947-19.688-7.799-25.414,3.9c-4.344,8.877-6.898,13.462-14.334,20.173c-4.979,4.495-6.451,5.955-12.184,7.339
		c-18.068,4.365-0.947,17.251,9.957,17.614c18.229,0.606,30.896-10.45,45.865-19.77c15.6-9.712,36.586-13.321,44.014,7.727
		c2.848,8.067,2.852,18.676,2.547,27.416c-0.42,12.026-0.516,19.632,3.121,30.798c6.062,18.607,19.666,32.561,37.383,40.177
		c46.988,20.197,97.457,4.946,140.623-16.783c19.264-9.697,48.607-28.257,67.453-8.166c16.621,17.716,10.725,45.332,9.699,67.137
		c-1.205,25.669,2.889,49.671,16.842,71.134c44.23,68.037,128.044,80.391,203.224,76.057
		c141.143-8.14,193.184-98.812,206.729-132.876C1100.293,439.882,1093.711,436.908,1085.285,450.788z"/>
	<path fill="#B75789" d="M350.876,263.496c-0.041-1.026,3.781-4.978,4.482-6.202c2.068-3.623,3.281-7.562,4.736-11.431
		c2.734-7.28,6.416-14.067,11.99-19.558c-0.547,2.416-1.324,5.369-2.328,7.632c2.469-3.293,5.396-6.234,8.936-8.162
		c0.104,1.502-0.73,2.787-1.254,4.137c1.92-1.215,3.551-3.287,5.656-4.526c3.02-1.775,6.461-2.881,9.715-4.01
		c4.742-1.644,12.367-3.659,15.543-7.928c-0.695,4.911-7.109,8.582-10.764,11.085c5.547,0.931,10.834-2.672,15.793-4.252
		c-0.541,3.036-3.59,3.914-5.617,5.453c6.17,1.152,13.453-2.329,19.412-3.712c5.662-1.312,11.191-0.552,16.768,0.715
		c2.457,0.559,6.693,1.505,8.537,3.106c-4.887-0.49-10.082,0.602-14.486,2.666c3.549,0.826,6.98,0.518,10.229,2.286
		c2.582,1.401,5.121,3.059,7.422,4.979c2.619,2.186,5.225,4.648,8.096,6.45c4.988,3.135,11.648,4.578,17.445,5.426
		c-3.43,1.95-7.051,2.876-11.047,1.863c2.996,1.56,5.424,3.768,8.629,4.801c-2.959,0.465-6.16,0.42-9.107-0.112
		c9.266,4.625,12.895,14.134,13.57,23.717c0.607,8.624,1,20.308,8.412,25.977c-4.221-0.039-12.064-3.025-11.686-8.479
		c0.262,4.543,1.145,9.362,2.416,13.658c1.084,3.657,3.086,5.426,5.857,8.016c-2.844-0.422-4.865-1.176-7.318-2.621
		c-2.223-1.31-2.627-2.831-4.07-4.602c0.209,1.867,1.182,3.682,1.873,5.313c-2.295-0.473-3.75-3.763-5.115-5.459
		c-1.645,4.535,2.299,12.269,6.111,14.756c3.896,2.54,9.246,2.515,13.455,0.917c-1.445,1.376-3.203,2.658-4.758,3.675
		c6.102,1.602,10.895-4.491,16.121-6.505c4.705-1.812,7.824-2.044,12.869-1.693c-2.9,1.058-6.402,2.422-8.043,5.258
		c2.375,0.6,4.926-0.071,7.393,0.179c3.129,0.315,5.842,0.829,8.723,2.031c-1.299,0.747-4.338,0.687-6.102,1.283
		c-2.404,0.813-4.91,2.108-7,3.537c-5.166,3.535-10.014,7.337-15.729,10.107c-11.471,5.562-23.863,3.063-34.52-3.668
		c-3.139-1.981-3.805-5.19-5.9-8.158c-1.939-2.747-3.039-5.628-4.293-8.819c-3.758-9.55-1.9-19.599-3.432-29.625
		c-1.262-8.25-4.246-16.929-8.176-24.265c-3.576-6.674-9.686-11.244-16.838-13.868c-2.703-0.992-5.293-0.984-7.984-2.222
		c-2.848-1.306-5.512-1.412-8.6-1.833c-4.143-0.563-7.861-0.841-12.008-0.678c-6.873,0.27-13.652,4.233-20.01,6.639
		c-4.105,1.553-8.199,2.932-12.354,4.097c-3.508,0.983-7.428,1.342-10.529,2.399"/>
	<g>
		<path fill="#F79733" d="M766.531,524.25c-12.461-9.627-13.025-27.443,4.846-29.429c-4.484-10.486-11.521-14.01-22.549-14.142
			c-11.565-0.138-23.964-5.419-27.47-17.436c-2.396-8.21-3.689-18.216-1.18-26.681c2.641-8.903,11.426-11.147,14.891-1.932
			c2.689-5.385,3.605-13.163,3.348-19.032c-0.199-4.479-0.541-6.504-2.611-10.273c-2.406-4.377-5.113-8.316-9.043-11.372
			c-2.617-2.037-4.896-3.469-6.482-6.356c-2.998-5.459-5.803-16.468-2.055-22.193c3.344-5.111,13.049-3.406,16.721,0.757
			c-1.094-8.944-2.748-19.067-9.418-25.491c-8.447-8.134-18.557-11.891-30.293-13.034c-7.1-0.692-16.955,0.301-23.283-3.156
			c-10.041-5.484-1.758-13.436,6.59-13.193c-8.082-5.723-22.457-4.546-31.691-1.426c-10.555,3.567-19.744,9.473-29.564,14.514
			c-5.801,2.979-13.334,7.601-19.99,6.947c-10.57-1.038-4.535-10.521,1.445-14.026c-10.854-2.845-23.551,5.679-30.85,12.72
			c-4.924,4.755-9.129,10.283-14.758,14.151c-3.559,2.445-7.396,4.29-11.238,6.305c-6.545,3.437-14.82,5.103-20.73-0.684
			c-6.426-6.291-1.779-14.462,6.58-14.266c-6.17-5.271-13.955-6.957-22.348-5.133c-5.584,1.215-10.086,5.195-15.623,6.927
			c-5.168,1.616-9.779,0.329-14.639-1.369c-8.414-2.941-14.088-11.985-14.494-20.862c-0.188-4.059,0.957-10.869,3.328-14.188
			c2.262-3.163,8.588-2.479,7.992,2.209c0.627-5.88,1.357-11.017-0.133-16.39c-2.16-7.789-4.854-13.345-10.436-19.188
			c-5.264-5.507-13.266-4.892-18.543-9.996c-5.789-5.603,2.336-11.581,7.723-6.577c-2.037-2.74-2.311-6.825-4.598-9.334
			c-1.795-1.967-5.93-3.865-8.436-4.357c-6.516-1.278-12.953-1.087-19.232,0.878c-3.566,1.114-6.688,3.974-10.389,4.825
			c-2.389,0.551-8.193,0.723-10.344-0.651c-5.924-3.789,3.674-9.578,7.156-10.597c-7.441-0.72-16.865-0.46-23.354,3.931
			c-4.084,2.765-7.527,6.882-10.688,10.643c-5.51,6.558-11.264,15.553-20.236,17.361c8.006,1.165,17.684-1.323,25.283-3.579
			c14.939-4.438,35.119-0.138,47.578,8.731c16.416,11.687,13.203,33.718,14.529,51.241c0.648,8.558,4.262,18.755,9,25.874
			c6.633,9.96,19.295,18.94,30.25,23.303c14.912,5.938,30.713,7.06,46.512,5.056c26.887-3.411,50.988-15.723,75.541-26.304
			c31.541-13.593,67.445-21.764,91.678,9.151c11.736,14.974,12.139,30.76,13.715,48.956c1.602,18.478,1.496,37.24,4.938,55.512
			c8.832,46.889,50.733,85.036,99.087,84.479C793.99,543.009,778.242,533.296,766.531,524.25z"/>
	</g>
	<g>
		<path fill="#FFCD31" d="M451.636,301.241c-0.059,0.618-0.16,1.26-0.326,1.933C451.585,302.444,451.671,301.806,451.636,301.241z"
			/>
		<path fill="#FFCD31" d="M395.425,247.967c0.531,0.048,1.068,0.117,1.611,0.21C396.489,247.991,395.946,247.935,395.425,247.967z"
			/>
		<path fill="#FFCD31" d="M603.581,344.487c-5.15,1.309-10.744,6.979-16.059,5.151c0.701-1.48,1.092-3.099,1.129-4.736
			c-8.762,0.298-19.01,23.146-28.717,15.99c-0.242-1.943,0.342-4.021,1.762-5.429c-8.367-0.38-14.293,5.732-20.762,10.581
			c-3.365,2.523-6.145,5.337-10.746,4.578c-5.09-0.837-6.596-6.117-1.518-8.867c-8.924-1.896-14.365,8.273-22.59,8.961
			c-6.734,0.562-18.498-6.267-7.676-11.007c-3.924-3.044-9.564-1.107-13.525,0.62c-3.82,1.666-6.232,2.378-10.602,1.457
			c-3.48-0.734-9.066-2.289-10.434-6.158c-1.865-5.278,3.209-7.125,7.051-4.376c-2.262-4.361-4.33-6.818-8.977-8.462
			c-3.822-1.351-8.793-1.412-11.881-4.318c-2.547-2.396-5.293-9.568-2.717-12.782c2.338-2.915,6.381-0.561,7.641,2.204
			c-0.748-3.359-0.592-6.571-3.043-9.856c-2.131-2.856-5.607-3.661-7.678-6.359c-2.129-2.773-1.762-8.304,0.078-11.099
			c2.045-3.102,7.109-2.707,7.316,0.661c0.471-4.968-2.398-8.247-6.029-11.502c-3.238-2.905-5.928-8.038-3.525-12.396
			c1.965-3.57,6.539-1.027,8.205,1.788c-2.34-3.953-2.367-6.53-6.689-9.348c-3.482-2.271-6.492-2.722-10.541-3.446
			c-3.713-0.665-8.846-1.991-10.074-6.312c-1.951-6.863,4.264-5.574,8.363-5.741c-8.984-4.848-18.086-3.446-27.518-0.063
			c-2.82,1.011-8.795,3.357-11.494-0.193c-2.012-2.65,0.188-5.882,3.092-6.06c-8.162-0.747-14.859,3.623-21.701,7.661
			c-3.221,1.901-6.264,4.306-9.502,6.19c-4.17,2.424-7.746,2.004-12.26,1.449c-0.494,0.148-0.994,0.282-1.508,0.385
			c8.006,1.165,17.684-1.323,25.283-3.579c14.939-4.438,35.119-0.138,47.578,8.731c16.416,11.687,13.203,33.718,14.529,51.241
			c0.648,8.558,4.262,18.755,9,25.874c6.633,9.96,19.295,18.94,30.25,23.303c14.912,5.938,30.713,7.06,46.512,5.056
			c26.887-3.411,50.988-15.723,75.541-26.304c3.236-1.394,6.518-2.726,9.828-3.971C607.103,343.82,605.079,344.106,603.581,344.487z
			"/>
		<path fill="#FFCD31" d="M454.962,327.894c0.109,0.485,0.234,0.974,0.391,1.465C455.329,328.875,455.183,328.379,454.962,327.894z"
			/>
	</g>
	<path fill="#4E335E" d="M345.019,272.654c1.746-0.812,3.537-0.45,5.365-0.239c0.514,0.059,3.656,0.112,2.139,1.047
		c-0.805,0.495-1.617,0.579-2.512,0.811c-1.303,0.334-2.637,0.581-3.885,1.097c-1.467,0.605-2.365,1.581-3.402,2.732
		c-0.33,0.367-1.127,1.346-1.699,1.219c-0.715-0.159,0.09-1.744,0.246-2.146C341.995,275.316,343.155,273.517,345.019,272.654z"/>
	<path fill="#4E335E" d="M345.116,278.125c1.156,0.812,2.936,0.182,3.748-0.849c0.439-0.556,0.768-1.37,0.648-2.095
		c-0.1-0.608-0.68-1.418-1.254-1.619c-1.111-0.389-2.965-0.121-3.771,0.847C343.515,275.575,343.935,277.294,345.116,278.125z"/>
	<path fill="#FFFFFF" d="M348.302,276.242c0.832-0.236,0.547-1.917-0.457-1.6C346.808,274.968,347.228,276.548,348.302,276.242z"/>
	<g>
		<path fill="#79365D" d="M310.882,300.066c-0.398-1.414-2.357-1.15-3.352-0.622c-0.541,0.288-1.084,0.567-1.584,0.92
			c-0.322,0.228-1.561,1.072-2.027,0.816c0.199,0.333,0.68,0.435,1.031,0.505c0.463,0.095,0.943,0.104,1.41,0.059
			c0.547-0.051,1.107-0.45,1.666-0.333c0.26,0.055,0.492,0.268,0.309,0.53c-0.166,0.242-0.568,0.172-0.818,0.133
			c0.195,0.455,1.229,0.371,1.623,0.323c0.654-0.082,1.303-0.335,1.666-0.92C311.067,301.056,311.011,300.523,310.882,300.066z"/>
	</g>
	<g>
		<path fill="#4E335E" d="M322.594,299.781c0,0,0.887,0.783,2.548,2.252c1.635,1.469,4.204,3.537,7.127,6.669
			c1.477,1.559,2.938,3.438,4.354,5.694c0.622,1.053,1.284,2.289,1.895,3.486c0.608,1.199,1.239,2.442,1.89,3.726
			c1.312,2.512,2.785,5.118,4.913,7.243c1.059,1.078,2.269,1.929,3.733,2.739c1.299,0.745,2.909,1.298,4.503,1.688
			c6.471,1.511,14.452-0.414,19.975-5.97c2.768-2.695,4.911-6.209,6.555-10.049c1.667-3.849,2.917-8.021,4.438-12.231
			c3.056-8.344,5.976-17.043,9.674-25.678c1.876-4.303,4.029-8.561,6.684-12.541c0.337-0.502,0.637-0.995,1.004-1.504l1.05-1.428
			l1.05-1.429l1.134-1.399c0.758-0.933,1.506-1.875,2.34-2.738c0.825-0.871,1.592-1.796,2.496-2.592
			c3.436-3.352,7.397-6.233,11.803-8.195l3.377-1.264c0.611-0.24,1.148-0.326,1.727-0.497c0.576-0.138,1.117-0.33,1.722-0.422
			c1.187-0.21,2.37-0.472,3.556-0.555c0.592-0.056,1.182-0.138,1.774-0.169l1.778-0.051c9.451-0.132,18.872,3.274,25.33,9.629
			c0.85,0.746,1.531,1.648,2.277,2.479c0.717,0.854,1.314,1.805,1.965,2.693c1.176,1.841,2.356,3.634,3.589,5.37
			c2.453,3.468,5.144,6.676,8.257,9.236c1.564,1.262,3.209,2.39,4.963,3.248c1.759,0.837,3.577,1.495,5.436,1.848
			c3.752,0.717,7.412,1.244,10.945,1.296c0.883,0.048,1.754-0.042,2.616-0.063c0.862-0.046,1.705-0.189,2.544-0.277
			c0.823-0.165,1.647-0.332,2.439-0.519c0.797-0.233,1.584-0.464,2.36-0.691c3.139-0.831,5.979-1.969,8.694-2.938
			c5.34-2.172,10.239-3.667,14.413-3.806c2.077-0.095,3.932,0.1,5.519,0.374c1.58,0.32,2.902,0.692,3.947,1.069
			c1.051,0.36,1.834,0.694,2.356,0.932c0.526,0.229,0.798,0.347,0.798,0.347s-0.272-0.115-0.801-0.339
			c-0.525-0.232-1.311-0.558-2.365-0.908c-1.047-0.366-2.37-0.724-3.949-1.027c-1.585-0.258-3.433-0.434-5.498-0.318
			c-4.151,0.18-9.004,1.712-14.316,3.934c-2.711,0.998-5.571,2.175-8.692,3.033c-0.774,0.235-1.56,0.474-2.354,0.715
			c-0.82,0.202-1.644,0.377-2.483,0.555c-0.851,0.098-1.707,0.252-2.58,0.307c-0.874,0.031-1.758,0.131-2.651,0.091
			c-3.576-0.017-7.277-0.515-11.05-1.196c-1.914-0.344-3.791-1.001-5.607-1.844c-1.812-0.865-3.509-2.005-5.122-3.279
			c-3.209-2.588-5.974-5.823-8.484-9.3c-1.259-1.736-2.474-3.542-3.663-5.365c-0.646-0.862-1.229-1.771-1.934-2.595
			c-0.732-0.797-1.396-1.665-2.229-2.379c-6.308-6.092-15.497-9.312-24.646-9.091l-1.72,0.065c-0.572,0.037-1.143,0.123-1.714,0.182
			c-1.153,0.092-2.26,0.354-3.383,0.559c-0.558,0.086-1.13,0.292-1.694,0.433c-0.547,0.168-1.178,0.287-1.657,0.495l-3.233,1.245
			c-4.214,1.928-8.003,4.737-11.308,8.025c-0.869,0.777-1.608,1.691-2.403,2.546c-0.807,0.849-1.52,1.77-2.245,2.68l-1.088,1.368
			l-1.036,1.438l-1.035,1.438c-0.319,0.451-0.63,0.97-0.945,1.451c-2.544,3.898-4.611,8.082-6.418,12.341
			c-3.564,8.552-6.409,17.299-9.377,25.661c-1.456,4.153-2.673,8.379-4.365,12.4c-1.677,4.02-3.907,7.822-6.959,10.852
			c-0.387,0.371-0.776,0.789-1.159,1.096c-0.403,0.338-0.72,0.635-1.192,1.005l-1.271,0.937l-1.324,0.834
			c-1.793,1.051-3.686,1.859-5.614,2.435c-1.927,0.586-3.902,0.892-5.851,0.968c-1.946,0.07-3.881-0.057-5.721-0.491
			c-1.85-0.441-3.575-0.997-5.244-1.925c-1.517-0.812-3.063-1.869-4.285-3.1c-2.493-2.453-4.091-5.277-5.472-7.846
			c-1.383-2.608-2.516-4.962-3.797-7.069c-1.267-1.958-2.637-3.712-4.03-5.146c-2.764-2.908-5.303-4.923-6.983-6.399
			c-1.682-1.456-2.577-2.231-2.577-2.231c-0.626-0.543-0.694-1.49-0.152-2.116c0.543-0.626,1.49-0.694,2.116-0.151l0.012,0.01
			L322.594,299.781z"/>
	</g>
	<g>
		<path fill="#8F548A" d="M939.484,576.296c-24.256,4.211-49.141,6.696-73.762,6.357c-29.168-0.402-58.105-4.262-85.643-14.159
			c-12.01-4.315-23.66-9.613-35.066-15.325c-40.835-20.452-72.048-60.302-71.358-109.16c0.363-25.755,13.531-71.084-19.525-83.477
			c-20.887-7.83-46.506,7.404-65.566,15.152c-40.521,16.47-110.021,38.525-147.25,3.717c-15.713-14.694-24.811-32.736-25.215-54.957
			c-0.229-12.517,2.986-29.619-10.811-36.346c-3.154-1.536-6.576-2.164-10.08-2.182c4.992,2.159,9.152,6.48,11.707,13.722
			c2.848,8.067,2.852,18.676,2.547,27.416c-0.42,12.026-0.516,19.632,3.121,30.798c6.062,18.607,19.666,32.561,37.383,40.177
			c46.988,20.197,97.457,4.946,140.623-16.783c19.264-9.697,48.607-28.257,67.453-8.166c16.621,17.716,10.725,45.332,9.699,67.137
			c-1.205,25.669,2.889,49.671,16.842,71.134c44.23,68.037,128.044,80.391,203.224,76.057c34.949-2.017,64.43-9.096,89.221-19.121
			C971.844,566.55,953.154,573.922,939.484,576.296z"/>
	</g>
	<path fill="#F05C47" d="M418.335,301.091c1.934,1.896-4.811,6.408-6.705,7.204c2.803,0.743,9.34-0.865,11-3.406"/>
	<path fill="#F05C47" d="M421.821,333.181c0.926,2.104-3.498,5.191-5.041,5.94c-1.715,0.834-3.666,1.111-5.412,1.798
		c5.834,1.619,11.094-0.468,15.77-4.095"/>
	<path fill="#F05C47" d="M434.122,365.587c0.127-0.142,0.244-0.288,0.354-0.441c0.066,3.662-4.5,9.377-8.148,10.244
		c2.869,0.38,6.227-1.053,8.797-2.098c2.055-0.837,5.295-1.902,6.746-3.771"/>
	<path fill="#F05C47" d="M470.628,390.193c0.025-0.164,0.037-0.33,0.041-0.494c0.945,4.805-0.156,8.942-1.119,13.57
		c4.807-3.822,8.328-7.709,7.785-14.197"/>
	<path fill="#F05C47" d="M532.122,391.208c0.225-0.158,0.256-0.304,0.096-0.435c0.502,3.913,2.422,6.812,1.607,10.919
		c1.955-0.262,2.764-6.329,2.947-7.844c0.354-2.921-0.043-5.343-0.705-8.196"/>
	<path fill="#F05C47" d="M578.575,375.919c3.104,0.17,2.889,7.574,3.559,9.305c1.65-2.169,2.119-7.064,1.127-9.567"/>
	<path fill="#F05C47" d="M623.491,357.438c-0.211,0.009-0.328-0.059-0.348-0.202c2.324,1.889,1.172,4.799,1.246,7.253
		c1.934-2.167,6.42-8.189,4.27-11.365"/>
	<path fill="#F05C47" d="M665.96,364.132c-0.039-0.298-0.096-0.592-0.178-0.881c-0.178,2.417-0.471,4.973-1.629,7.141
		c-0.684,1.279-2.217,2.467-2.547,3.863c3.26-0.076,9.076-3.405,9.195-7.083"/>
	<path fill="#F05C47" d="M678.694,406.722c-1.662,0.862-3.041,2.286-4.943,2.696c-1.248,0.271-2.66,0.298-3.938,0.38
		c0.803,2.668,6.697,1.94,8.844,1.847"/>
	<path fill="#F05C47" d="M677.923,452.36c-1.52-0.438-3.402,0.518-5.016,0.579c-1.623,0.062-3.203-0.195-4.805-0.384
		c1.803,5.135,7.488,4.756,12.006,4.446"/>
	<path fill="#F05C47" d="M684.522,484.362c-0.119-0.552-2.855,1.498-3.684,1.771c-2.363,0.777-5.295,0.362-7.719,0.188
		c3.09,5.492,10.936,1.688,15.574,2.098"/>
	<path fill="#F05C47" d="M704.333,520.401c-0.822,2.315-3.613,7.16-6.258,7.206c3.615,0.612,13.27-1.819,14.059-6.006"/>
	<path fill="#F05C47" d="M733.702,544.855c0.104-0.279-0.053-0.445,0.281-0.574c0.041,4.313-1.488,7.931-5.145,10.129
		c4.568,1.009,12.176-2.955,13.137-7.749"/>
	<path fill="#F05C47" d="M783.91,567.38c0.152-0.161,0.291-0.331,0.42-0.513c0.516,1.981,0.379,5.089,0.34,7.145
		c-0.029,1.502,0.17,3.898-1.271,4.936c4.711-0.701,10.139-7.508,10.457-12.303"/>
	<path fill="#F05C47" d="M838.557,579.902c-0.191-0.324-0.418-0.43-0.441-0.819c2.154,2.32,1.322,6.282,1.141,9.063
		c2.127-1.436,4.104-2.355,5.385-4.738c1.104-2.048,1.822-4.596,1.99-6.927"/>
	<path fill="#F05C47" d="M885.039,580.5c0.502,0.127,1.502,4.447,1.275,5.906c1.201-0.621,2.41-2.433,2.9-3.678
		c0.484-1.225,0.219-2.655,1.449-3.475"/>
	<path fill="#F05C47" d="M923.264,576.832c-0.146-0.092-0.281-0.097-0.402-0.018c1.225,1.111,2.258,4.195,1.939,5.867
		c3.787-2.512,4.678-5.128,5.188-9.432"/>
	<g>
		<path fill="#FAB88C" d="M424.72,331.945c1.984-3.019-2.613-8.548-3.883-4.789C420.257,328.878,422.835,334.815,424.72,331.945z"/>
		<path fill="#FAB88C" d="M423.718,337.587c-0.961,1.232-0.555,6.026,1.947,5.421c2.355-0.57,0.598-4.347-0.908-4.933
			L423.718,337.587z"/>
		<path fill="#FAB88C" d="M431.513,339.61c-0.963,0.764-0.338,4.419,1.688,3.737c1.74-0.584,0.139-3.865-0.883-4.373"/>
		<path fill="#FAB88C" d="M584.935,366.967c-1.201,0.494-2.312,1.239-3.09,2.173c-1.029,1.235-1.967,3.16,0.184,3.867
			c2.162,0.712,4.434-0.929,5.867-2.354c1.477-1.466,3.592-4.635-0.248-4.346C586.757,366.375,585.819,366.602,584.935,366.967z"/>
		<path fill="#FAB88C" d="M595.995,366.546c-0.211,0.023-0.422,0.069-0.625,0.139c-0.928,0.321-3.742,2.795-1.852,3.634
			c1.336,0.591,3.211,0.11,4.273-0.837C599.647,367.828,597.8,366.354,595.995,366.546z"/>
		<path fill="#FAB88C" d="M599.294,357.521c-0.631,0.269-1.158,0.725-1.406,1.368c-0.627,1.614,1.262,2.056,2.51,1.662
			c1.145-0.36,3.219-2.548,1.439-3.149C601.062,357.14,600.095,357.18,599.294,357.521z"/>
		<path fill="#FAB88C" d="M681.685,402.779c0.02-0.105,0.037-0.229,0.055-0.367c0.176-1.325,0.877-4.252-1.152-3.088
			C678.843,400.323,679.542,403.224,681.685,402.779z"/>
		<path fill="#FAB88C" d="M689.712,412.065c2.807-2.815-1.236-11.427-4.303-7.96C683.421,406.351,686.429,415.362,689.712,412.065z"
			/>
		<path fill="#FAB88C" d="M680.64,411.734c-0.145,0.391-1.045,5.124,0.74,3.664c0.99-0.809,0.377-3.465-0.707-3.934L680.64,411.734z
			"/>
		<path fill="#FAB88C" d="M684.017,417.885c-0.801,1.274-0.969,6.151,1.623,4.942c1.961-0.918,0.703-4.809-1.051-5.147
			L684.017,417.885z"/>
		<path fill="#FAB88C" d="M690.849,415.687c-0.803,1.501-0.525,3.354,1.508,3.16c0.438-1.413,0.082-2.789-0.869-3.906
			L690.849,415.687z"/>
		<path fill="#FAB88C" d="M680.38,430.05c-1.023,0.841-0.91,5.435,0.73,5.598c1.943-1.384,1.684-5.558-0.332-6.646L680.38,430.05z"
			/>
		<path fill="#FAB88C" d="M685.183,438.015c-0.373,0.736-1.111,6.381,1.334,5.058c1.475-0.798,0.695-6.244-0.902-6.376
			L685.183,438.015z"/>
		<path fill="#FAB88C" d="M688.319,432.364c-0.039,0.955,0.064,2.41,1.268,2.305c0.408-0.984,0.547-2.797-0.6-3.321L688.319,432.364
			z"/>
		<path fill="#FAB88C" d="M699.952,497.65c0.422-2.071-0.793-4.022-2.029-5.546c-0.799-0.988-2.17-2.812-3.541-1.909
			c-1.406,0.924-0.688,3.165-0.143,4.305C694.886,495.848,699.108,501.806,699.952,497.65z"/>
		<path fill="#FAB88C" d="M702.157,490.105c0.098-0.289,0.125-0.634,0.092-1.01c-0.107-1.24-1.018-4.113-2.229-2.292
			C698.743,488.73,702.021,490.516,702.157,490.105z"/>
		<path fill="#FAB88C" d="M698.044,506.635c0.602,1.587,1.971,2.951,3.74,2.887c0.369-1.129-2.027-4.718-3.072-3.903
			L698.044,506.635z"/>
		<path fill="#FAB88C" d="M708.231,510.333c3.066-0.921-1.26-6.215-3.553-5.439C701.392,506.008,706.321,510.908,708.231,510.333z"
			/>
		<path fill="#FAB88C" d="M706.155,498.289c0.053,1.604,0.92,2.929,2.625,3.021c0.539-1.586-0.947-4.252-2.766-4.133
			L706.155,498.289z"/>
		<path fill="#FAB88C" d="M796.338,558.888c0.6,2.994,6.338,4.102,8.822,3.865c1.207-0.113,2.67-0.628,3.328-1.745
			c1.623-2.761-4.127-4.117-5.955-4.652C800.369,555.724,795.639,555.386,796.338,558.888z"/>
		<path fill="#FAB88C" d="M807.186,570.388c1.891,0.679,4.43,1.096,5.664-0.912c0.926-1.505,0.32-2.869-1.186-3.592
			C808.201,564.221,802.055,568.549,807.186,570.388z"/>
		<path fill="#FAB88C" d="M818.471,561.639c1.385,0.158,3.445,0.443,3.193-1.734c-0.154-1.338-1.482-1.758-2.656-1.8
			c-1.209-0.043-3.791,0.543-3.424,2.281C815.857,561.675,817.428,561.52,818.471,561.639z"/>
		<path fill="#FAB88C" d="M870.168,571.708c1.32,0.228,3.828,0.172,4.311-1.498c0.49-1.695-2.33-2.643-3.793-2.363
			C867.789,568.398,866.549,571.084,870.168,571.708z"/>
		<path fill="#FAB88C" d="M876.945,575.48c3.494,0.259,3.104-3.021,0.027-2.669C874.434,573.102,874.229,575.279,876.945,575.48z"/>
		<path fill="#FAB88C" d="M911.104,562.905c-0.598,1.721,2.334,1.898,3.697,1.702c1.43-0.208,2.76-1.309,1.449-2.447
			C915.262,561.301,911.562,561.586,911.104,562.905z"/>
		<path fill="#FAB88C" d="M918.48,568.371c-1.182-0.314-2.129,0.637-1.293,1.495c0.822,0.845,2.967,0.315,2.309-0.827
			L918.48,568.371z"/>
	</g>
	<path fill="#4E335E" d="M366.265,260.868c3.131-3.106,6.164-6.343,9.443-9.281c3.188-2.858,7.207-5.567,11.348-6.841
		c2.99-0.921,6.66-2.121,9.803-1.611c-2.645-0.781-7.875,3.916-8.834,6.341c-1.037,2.619,0.729,6.078,3.457,6.695
		c-5.475,1.513-9.152,7.429-4.889,12.036c-1.152,0.48-2.818,0.323-3.963,0.912c-1.158,0.592-1.826,1.818-2.545,2.83
		c-1.381,1.944-1.625,3.404-2.076,5.593c-1.5-0.387-3.805-1.296-5.178-1.989c-2.025-1.024-3.742-2.054-5.928-2.649
		c-2.295-0.627-4.512-1.01-6.916-1.296c-2.631-0.312-5.82-2.795-2.361-4.742C360.563,265.213,363.835,263.285,366.265,260.868z"/>
	<g>
		<path fill="#F05C47" d="M396.665,243.033c-0.359-0.062-0.895-0.081-1.57-0.047c-0.676,0.035-1.496,0.079-2.436,0.13
			c-0.955,0.005-2.004,0.164-3.148,0.319c-1.158,0.305-2.391,0.636-3.6,1.236c-0.309,0.137-0.621,0.275-0.936,0.417
			c-0.305,0.166-0.609,0.334-0.918,0.505c-0.621,0.339-1.266,0.684-1.865,1.074c-1.246,0.72-2.459,1.673-3.701,2.556
			c-0.619,0.457-1.26,0.896-1.871,1.375l-1.775,1.505c-1.195,1-2.379,2.011-3.484,3.039c-1.127,1.016-2.234,2.014-3.307,2.98
			c-1.076,0.939-2.133,1.937-3.105,2.723c-1.023,0.736-1.912,1.486-2.916,2.037c-0.947,0.585-1.836,1.118-2.686,1.586
			c-0.826,0.469-1.555,0.877-2.123,1.229c-1.154,0.698-1.816,1.096-1.816,1.096c-0.029,0.018-0.062,0.041-0.09,0.059
			c-0.484,0.334-0.723,0.884-0.693,1.431c-0.041,0.108-0.072,0.226-0.092,0.345c-0.096,0.66,0.219,1.281,0.746,1.615
			c0.115,0.136,0.26,0.3,0.451,0.504c0.555,0.573,1.498,1.39,2.812,1.907c0.65,0.259,1.363,0.439,2.088,0.552
			c0.363,0.057,0.73,0.098,1.1,0.13c0.348,0.028,0.703,0.057,1.064,0.085c0.734,0.059,1.469,0.136,2.184,0.246
			c0.727,0.081,1.473,0.253,2.221,0.383c0.734,0.182,1.486,0.324,2.203,0.543c0.727,0.193,1.434,0.414,2.115,0.645
			c1.367,0.451,2.617,0.957,3.691,1.399c1.072,0.46,2.004,0.792,2.676,0.93c0.336,0.067,0.602,0.11,0.785,0.115
			c0.182,0.011,0.277,0.017,0.277,0.017s-0.094-0.019-0.273-0.053c-0.18-0.027-0.436-0.104-0.752-0.209
			c-0.639-0.22-1.492-0.652-2.492-1.243c-1.014-0.579-2.205-1.247-3.533-1.884c-0.662-0.322-1.354-0.639-2.072-0.935
			c-0.709-0.318-1.461-0.565-2.201-0.852c-0.758-0.233-1.498-0.507-2.273-0.697c-0.428-0.122-0.842-0.228-1.248-0.323
			c0.65,0.029,1.342,0.021,2.02-0.096c0.904-0.139,1.836-0.266,2.83-0.525c0.998-0.222,1.936-0.471,2.877-0.719
			c0.963-0.255,1.836-0.435,2.836-0.678c0.91-0.205,1.908-0.583,2.725-0.831c0.424-0.124,0.824-0.197,1.244-0.282
			c0.436-0.062,0.865-0.123,1.281-0.181c0.832-0.058,1.553-0.175,2.297-0.069c0.73,0.055,1.4,0.107,1.994,0.152
			c0.586,0.089,1.096,0.166,1.516,0.23c0.842,0.131,1.324,0.205,1.324,0.205s-0.473-0.125-1.303-0.344
			c-0.416-0.108-0.922-0.239-1.5-0.391c-0.588-0.107-1.25-0.229-1.971-0.36c-0.701-0.179-1.578-0.155-2.418-0.177
			c-0.418,0.014-0.852,0.028-1.291,0.045c-0.451,0.038-0.947,0.082-1.412,0.166c-0.963,0.187-1.762,0.412-2.748,0.535
			c-0.887,0.12-1.947,0.23-2.895,0.378c-0.971,0.151-1.943,0.303-2.842,0.405c-0.889,0.144-1.842,0.177-2.762,0.22
			c-0.818,0.052-1.557-0.077-2.344-0.223c-0.111-0.022-0.215-0.045-0.326-0.069c0.746-0.225,1.527-0.46,2.355-0.711
			c0.244-0.074,0.49-0.148,0.74-0.224l0.377-0.113l0.096-0.028l0.047-0.014l0.104-0.035l0.021-0.01l0.184-0.078
			c0.486-0.215,0.982-0.436,1.49-0.658c0.48-0.225,1.025-0.459,1.557-0.671c0.529-0.224,1.061-0.423,1.607-0.675
			c0.541-0.248,1.09-0.496,1.643-0.746l1.613-0.828c0.543-0.26,1.057-0.6,1.576-0.903c0.516-0.305,1.043-0.627,1.514-0.962
			c0.963-0.661,1.908-1.312,2.826-1.94c0.924-0.593,1.791-1.223,2.68-1.685c0.434-0.232,0.879-0.508,1.266-0.689
			c0.445-0.178,0.875-0.35,1.287-0.515c0.82-0.347,1.605-0.47,2.291-0.684c0.689-0.161,1.322-0.233,1.83-0.3
			c0.516-0.078,0.918-0.149,1.18-0.248c0.268-0.08,0.41-0.123,0.41-0.123s-0.146,0.031-0.418,0.087
			c-0.266,0.075-0.672,0.111-1.184,0.146c-0.525,0.022-1.15,0.038-1.879,0.143c-0.707,0.154-1.559,0.227-2.402,0.499
			c-0.426,0.128-0.869,0.264-1.328,0.402c-0.496,0.183-0.912,0.401-1.396,0.608c-0.961,0.398-1.887,0.959-2.881,1.48
			c-0.965,0.547-1.963,1.113-2.977,1.688c-0.508,0.301-1.006,0.546-1.533,0.798c-0.52,0.247-1.023,0.523-1.57,0.73l-1.607,0.654
			c-0.543,0.192-1.084,0.384-1.619,0.574c-0.531,0.192-1.102,0.354-1.641,0.528c-0.549,0.166-1.057,0.336-1.604,0.533
			c-0.527,0.18-1.045,0.357-1.555,0.531l-0.188,0.062l-0.025,0.008c0.037-0.012,0.055-0.018,0.068-0.022l-0.014,0.003l-0.049,0.01
			l-0.098,0.021l-0.387,0.081c-0.256,0.054-0.508,0.107-0.758,0.16c-0.973,0.203-1.891,0.396-2.74,0.574
			c-0.145,0.031-0.275,0.06-0.416,0.09c0.572-0.387,1.18-0.803,1.844-1.277c0.99-0.633,1.979-1.557,3.041-2.447
			c1.023-0.95,1.938-1.941,2.973-2.973c1.006-1.037,2.049-2.109,3.107-3.199c1.047-1.111,2.139-2.174,3.242-3.23l1.645-1.594
			c0.566-0.507,1.158-0.971,1.73-1.454c1.172-0.952,2.246-1.931,3.455-2.74c0.584-0.438,1.172-0.802,1.748-1.171
			c0.289-0.184,0.574-0.365,0.855-0.545c0.297-0.156,0.588-0.311,0.875-0.462c1.127-0.659,2.312-1.054,3.355-1.413
			c1.135-0.231,2.17-0.457,3.096-0.524c0.934-0.111,1.742-0.208,2.41-0.287c0.668-0.078,1.199-0.095,1.555-0.059
			c0.359,0.024,0.537,0.12,0.541,0.105C397.196,243.187,397.024,243.08,396.665,243.033z"/>
		<path fill="#4E335E" d="M366.188,265.504L366.188,265.504C366.196,265.501,366.208,265.498,366.188,265.504z"/>
		<path fill="#4E335E" d="M366.188,265.504L366.188,265.504L366.188,265.504z"/>
	</g>
	<path fill="#F05C47" d="M430.79,349.856c0.041,4.531-1.414,8.774,0.014,13.582c1.518,5.113,4.502,9.677,6.379,14.772
		c2.727,7.401,5.773,15.358,4.395,23.245c-7.818-1.043-16.299-0.881-24.262-1.722c-6.338-0.668-14.34,0.152-16.377,7.485
		c-1.863,6.704,1.807,9.451,4.125,15.157c2.266,5.574,1.311,15.848,10.664,14.875c-1.568-1.578-3.17-2.863-3.904-5.023
		c-0.789-2.321,0.459-4.573-0.525-6.768c2.33,2.285,2.49,6.106,4.391,8.703c2.312,3.164,5.756,3.623,9.557,3.646
		c-6.52-4.287-9.99-15.021-8.195-22.607c4.148,3.035,6.219,5.798,6.426,11.002c2.684-2.141,2.523-7.181,1.529-10.194
		c-1.027-3.118-4.854-6.628-4.854-6.628s1.926-2.373,26.506,5.314c4.086,1.277,7.078,0.308,8.816-4.278
		c1.811-4.782,0.992-8.558-1.461-12.907c-2.891-5.126-3.197-10.385-2.881-16.3c0.68-12.749,0.521-17.767-11.006-26.96"/>
	<path fill="#4E335E" d="M422.743,422.145c-0.246,1.284,0.119,2.536,0.094,3.8c-0.02,1.069-0.398,2.188-0.338,3.226
		c1.486-0.468,3.045-3.091,3.641-4.479c0.537-1.25,1.566-4.523-0.148-5.364C424.435,418.566,422.979,420.904,422.743,422.145z"/>
	<path fill="#4E335E" d="M419.134,436.289c0.516,0.815,1.881,1.417,2.791,1.605c3.041,0.631,5.766-0.814,8.023-2.676
		c-2.068,0.01-4.174,1.073-6.135-0.257c-0.977-0.665-2.393-3.299-3.812-2.872C418.735,432.47,418.542,435.354,419.134,436.289z"/>
	<path fill="#4E335E" d="M410.444,435.042c-0.678,1.566,0.084,2.282,1.508,2.89c2.158,0.922,5.021,1.295,7.174,0.174
		c-0.896-0.722-2.539-0.413-3.605-1.2c-1.123-0.827-0.994-2.845-2.145-3.484C412.202,432.769,410.876,434.045,410.444,435.042z"/>
	<path fill="#FFCD31" d="M442.827,412.246c1.184-0.206,2.594,0.106,3.771,0.293c-0.613-0.479-0.52-1.521-1.256-1.956
		c2.062,0.177,2.84,2.33,4.748,2.637c0.904,0.146,1.635-0.126,2.062-0.956c0.256-0.492,0.805-2.083,0.312-2.621
		c0.402,0.261,0.789,0.555,1.107,0.914c0.088-1.565,0.408-2.877-0.547-4.267c1.146,0.325,2.715,0.992,3.4,2.06
		c0.744,1.155,0.477,2.856,0.322,4.148c-0.24,2.022-0.686,5.035,1.287,6.356c-2.037,0.708-4.129-1.236-5.605-2.185
		c-0.176,1.037,0.66,2.323,1.363,3.021c-1.516-0.237-2.82-0.556-4.178-1.191c-1.504-0.703-2.818-1.848-4.041-2.951
		C445.2,415.208,442.847,412.244,442.827,412.246z"/>
	<path fill="#F79733" d="M1004.988,532.058c-0.463-0.281-0.574-0.609-0.33-0.988c6.693-0.811,12.791-6.848,16.994-11.646
		c6.217-7.097,12.184-14.201,16.039-22.918c2.953-6.674,4.426-13.793,6.336-20.747c2.127-7.745,6.197-15.265,11.758-21.191
		c-0.184,2.628-3.836,7.029-0.455,8.935c1.822,1.027,3.381-0.301,4.576-1.467c2.473-2.41,3.973-6.388,4.395-9.632
		c0.926-7.133-0.338-13.574-0.266-20.656c0.064-6.191-0.326-15.265,3.41-20.638c0.67,3.114,0.941,6.457,4.836,6.895
		c2.965,0.332,4.08-1.195,5.461-3.713c3.461-6.309,2.014-13.752,2.871-20.776c0.982-8.054,3.268-13.579,7.354-20.487
		c2.582-4.366,5.895-10.83,10.154-13.195c-9.33,12.029,4.941,25.148,12.004,34.109c9.572,12.147,12.389,29.652,10.596,44.563
		c-1.332,11.056-4.486,20.051-11.076,28.777c-3.248,4.304-7.129,8.353-10.656,12.452c-3.012,3.504-8.846,7.283-8.771,12.647
		c0.09,6.5,8.193,3.052,11.371,0.357c0.498,4.927-5.754,11.862-9.342,14.684c-4.227,3.326-9.154,5.467-14.441,6.321
		c-9.119,1.478-18.477-1.029-27.436,0.694c-16.283,3.136-28.973,18.337-45.316,17.079L1004.988,532.058z"/>
	<path fill="#FFCD31" d="M1044.812,499.979c1.66-3.613,2.529-7.27,3.648-11.109c0.881-3.017,1.943-5.568,3.318-8.33
		c2.068-4.156,4.863-5.826,8.105-9.005c-0.221,2.236-2.475,5.988-0.625,7.867c2.434,2.476,5.072-0.734,6.631-2.509
		c3.578-4.075,4.777-8.942,5.4-14.199c0.559-4.711,0.1-9.573,1.143-14.198c0.75-3.323,3.262-12.117,6.844-13.221
		c-0.791,2.735-3.832,10.268,2.105,8.293c3.08-1.023,5.309-7.545,6.145-10.345c1.23-4.126,1.303-8.278,1.477-12.527
		c0.221-5.351,2.611-9.146,5.357-13.622c-0.898,6.49-0.551,11.2,2.33,16.926c2.785,5.53,5.277,10.382,6.809,16.523
		c3.426,13.745-3.141,28.209-15.639,34.646c1.688-2.117,6.826-11.384,3.199-13.859c-3.422-2.335-6.854,5.21-7.746,7.471
		c-1.992,5.054-3.541,9.886-6.9,14.305c-1.945,2.556-5.689,6.855-9.031,7.82c2.371,1.957,8.773-1.884,10.773-3.666
		c0.428,8.258-11.516,12.414-17.51,14.32c-6.748,2.146-13.414,2.759-19.605,6.42
		C1040.678,505.092,1043.648,502.513,1044.812,499.979z"/>
</g>
</svg>
