<?xml version="1.0" encoding="utf-8"?>
<!-- Generator: Adobe Illustrator 16.0.0, SVG Export Plug-In . SVG Version: 6.00 Build 0)  -->
<!DOCTYPE svg PUBLIC "-//W3C//DTD SVG 1.1//EN" "http://www.w3.org/Graphics/SVG/1.1/DTD/svg11.dtd">
<svg version="1.1" id="Layer_1" xmlns="http://www.w3.org/2000/svg" xmlns:xlink="http://www.w3.org/1999/xlink" x="0px" y="0px"
	 width="27.695px" height="12.028px" viewBox="-4.786 0.802 27.695 12.028" enable-background="new -4.786 0.802 27.695 12.028"
	 xml:space="preserve">
<path fill="#6B87AE" d="M16.895,0.802c-3.203,0-5.822,2.521-5.996,5.682c-0.645-0.318-1.348-0.502-1.857-0.502
	c-0.499,0-1.184,0.176-1.818,0.482C7.041,3.312,4.425,0.802,1.228,0.802c-3.316,0-6.014,2.697-6.014,6.014
	c0,3.316,2.697,6.014,6.014,6.014c3.038,0,5.551-2.268,5.951-5.197c0.529-0.372,1.283-0.65,1.862-0.65
	c0.595,0,1.375,0.295,1.906,0.678c0.414,2.918,2.921,5.17,5.947,5.17c3.315,0,6.015-2.697,6.015-6.014
	C22.909,3.5,20.211,0.802,16.895,0.802z M1.228,10.83c-2.214,0-4.014-1.801-4.014-4.014s1.8-4.014,4.014-4.014
	c2.213,0,4.014,1.801,4.014,4.014S3.441,10.83,1.228,10.83z M16.895,10.83c-2.213,0-4.014-1.801-4.014-4.014
	s1.801-4.014,4.014-4.014s4.014,1.801,4.014,4.014S19.107,10.83,16.895,10.83z"/>
</svg>
