<?xml version="1.0" encoding="utf-8"?>
<!-- Generator: Adobe Illustrator 16.0.0, SVG Export Plug-In . SVG Version: 6.00 Build 0)  -->
<!DOCTYPE svg PUBLIC "-//W3C//DTD SVG 1.1//EN" "http://www.w3.org/Graphics/SVG/1.1/DTD/svg11.dtd">
<svg version="1.1" id="Layer_1" xmlns="http://www.w3.org/2000/svg" xmlns:xlink="http://www.w3.org/1999/xlink" x="0px" y="0px"
	 width="425.665px" height="496.074px" viewBox="785.798 214.305 425.665 496.074"
	 enable-background="new 785.798 214.305 425.665 496.074" xml:space="preserve">
<g>
	<path fill="#00BAD2" d="M823.599,503.688c-21.637,24.919-3.393,65.373,28.553,65.812c10.936,0.15,20.613-3.101,30.57-7.346
		c5.742-2.447,13.712-9.27,19.102-8.968c1.896,0.106,5.227,2.621,7.027,3.32c4.593,1.785,9.588,2.899,14.539,3.042
		c9.786,0.281,19.984-3.788,26.396-10.869c-10.086-0.113-16.528-6.588-22.961-13.151c1.645-4.221,7.187-7.179,9.993-10.998
		c2.131-2.9,3.993-6.823,5.279-10.169c3.294-8.57,2.611-18.389-2.228-25.85c-11.953-18.426-37.902-17.275-57.041-15.309
		C860.183,475.53,838.697,486.301,823.599,503.688z"/>
	<path fill="#00A1DD" d="M939.149,358.685c-2.352,1.118-4.613,2.44-6.754,3.994c-13.395,9.721-23.096,33.182-16.559,49.521
		c4.182,10.451,17.605,22.333,27.148,27.03c7.152,3.521,15.32,6.901,22.965,9.079c5.184,1.476,11.068,0.883,16.07,2.317
		c1.602,11.407-4.5,16.292-12.781,20.479c6.444,12.858,31.393-6.388,29.821-17.723c14.077-0.226,30.301-11.062,40.146-19.881
		c11.379-10.191,15.198-27.564,10.096-42.087c-3.529-10.049-11.736-16.773-20.47-22.148c-14.276-8.785-30.595-13.356-47.144-15.18
		C967.78,352.557,952.083,352.534,939.149,358.685z"/>
	<g>
		<path fill="#F7993E" d="M942.276,681.921c-0.973,5.273-2.833,10.55-4.422,15.696c-2.307,7.468-5.102,7.153-10.156,12.428
			c-0.188,0.197,11.195,0.672,13.014-0.062c4.682-1.888,8.508-5.652,11.58-9.552c6.469-8.209,11.203-19.717,10.848-30.302
			c-0.635-18.924-26.967-27.574-32.645-6.123C928.204,672.661,930.638,685.212,942.276,681.921z"/>
		<path fill="#F7993E" d="M968.015,648.98c0.926,9.601,12.502,12.77,20.092,9.499c-2.785,8.537-2.864,15.781-11.035,20.397
			c7.973,2.014,9.072,2.676,14.278-3.549c3.763-4.497,4.731-8.822,6.374-14.359c2.848-9.602,7.793-26.224-5.822-30.847
			C982.032,626.773,967.007,638.541,968.015,648.98z"/>
	</g>
	<path fill="none" stroke="#01B69B" stroke-width="4" stroke-miterlimit="10" d="M803.879,391.376
		c-12.543,10.256-21.571,26.851-12.22,42.489c11.863,19.842,42.796,22.523,53.262,0.621c4.918-10.293,4.409-21.3-3.865-29.004
		c-10-9.311-20.913-9.271-29.296,1.749c-5.872,7.72-10.321,21.849,0.803,27.017c8.18,3.801,16.885-1.101,20.332-9.023
		c7.433-17.082-17.234-19.69-13.863-3c1.938,0.304,3.887,0.354,5.848,0.151"/>
	<path fill="#6B86AE" d="M1010.879,497.376c3.633,7.367,2.232,20.557,2.776,28.665c0.521,7.728,1.712,16.354,1.228,24.079
		c-0.408-8.031,4.344-14.365,4.15-21.619c8.516-0.38,17.342-4.09,25.89-4.389c4.478,14.273,3.925,33.791,4.979,48.913
		c0.307,4.393,1.843,10.841,1.271,15.08c-0.764,5.659-10.199,10.264-16.161,13.385c12.221-0.029,24.682-5.188,36.72-7.863
		c4.758-1.058,10.797-1.749,15.004-4.276c-4.322-0.004-17.798,1.176-21.034-0.906c-2.755-1.772-3.416-8.768-4.123-11.928
		c-2.402-10.73-2.71-22.049-4.948-32.914c-1.085-5.267-3.063-11.695-2.751-17.175c0.52-9.091,12.735-9.288,20.822-8.972
		c0.959,7.888,4.6,18.006,9.026,23.979c-1.529-12.023-4.542-24.421-6.82-36.275c-1.373-7.146-0.84-15.158-3.053-22.102
		c0.054,4.61,1.997,14.659-0.682,18.565c-2.912,4.246-13.444,4.877-18.159,5.942c-6.453,1.459-12.746,3.158-19.139,3.806
		c-5.876,0.596-12.386-0.031-17.825,2.692c-1.982-3.473-4.994-11.243-6.171-12.688L1010.879,497.376z"/>
	<path fill="#00BAD2" d="M877.848,333.282c7.261-5.635-0.6-15.282-7.642-10.17C863.12,328.257,870.146,339.258,877.848,333.282z"/>
	<path fill="#00BAD2" d="M975.879,524.376c-6.748,5.107-2.393,15.206,5.573,11.095c5.362-2.767,1.933-10.401-3.573-11.095H975.879z"
		/>
	<path fill="#DE8AAF" d="M1098.879,308.376c-4.063-6.718-14.175-17.254-21.846-7.104c-10.62,14.051,5.702,30.471,8.451,43.485
		c4.4-4.782,8.354-9.966,14.016-13.818c5.015-3.413,10.832-5.193,15.576-8.919c3.342-2.624,6.389-4.908,5.799-9.641
		c-1.357-10.911-16.564-7.245-21.996-2.004V308.376z"/>
	<g>
		<path fill="none" stroke="#CACCCE" stroke-width="6" stroke-miterlimit="10" d="M1107.487,652.545
			c-3.521,0.002-7.117,0.258-10.625,0.034c-2.15-0.137-6.158-1.653-8.244-0.832c-8.383,3.298,3.99,17.016,3.99,17.016
			c3.684,4.084,7.369,2.977,8.19-2.462c0,0,0.733-4.857,4.143-11.678c2.836-5.673,10.56-16.33,17.461-16.308
			c4.497,0.015,11.017,5.834,9.847,10.682c-1.725,7.156-17.342,10.467-22.095,5.548"/>
	</g>
	<g>
		<path fill="none" stroke="#01B69B" stroke-width="4" stroke-miterlimit="10" d="M1176.155,675.879
			c0.717,3.213,4.005,12.165,6.666,13.333"/>
	</g>
	<g>
		<path fill="none" stroke="#01B69B" stroke-width="4" stroke-miterlimit="10" d="M1184.821,665.212
			c3.068,4.883,6.404,10.663,8.668,16"/>
	</g>
	<g>
		<path fill="none" stroke="#01B69B" stroke-width="4" stroke-miterlimit="10" d="M1183.489,703.212
			c12.352,11.408,32.334-8.617,24-22"/>
	</g>
	<path fill="#01B69B" d="M972.778,223.086c-8.449-3.333-17.541-7.732-18.171,6.024c-2.19,0.001-4.529-2.273-6.854-1.489
		c-3.525,1.188-4.19,7.315-4.147,10.477c-5.711,0.642-11.632-0.253-11.611,7.067c-3.244,0.455-7.073,0.29-9.181,3.146
		c-1.08,1.465-1.336,3.718-1.49,5.477c-0.25,1.266-0.24,2.532,0.03,3.801c0.492,1.466,2.847,2.558,3.116,3.54
		c0.707,2.571-1.851,6.4-1.054,9.719c1.41,5.87,8.476,6.132,13.615,5.988c0.089,5.657,0.064,13.729,6.937,15.6
		c1.66,0.452,5.724,0.506,7.152-0.682c3.679,4.04,3.416,8.26,9.732,8.816c3.25,0.287,5.867-0.715,6.648-4.236
		c7.871,5.077,19.06,3.504,20.35-6.929c8.462,10.058,16.443-1.446,17.269-9.772c8.898,8.53,12.552-9.315,11.128-15.198
		c9.601,0.686,10.802-21.616,0.412-19.12c3.05-3.562,2.078-11.721-1.231-14.817c-2.024-1.895-8.478-3.717-10.005-0.521
		c0.348-3.365-0.539-7.149-3.082-9.413c-2.727-2.425-7.355-2.263-9.32,0.965c-2.961-10.653-20.281-9.289-19.739,2.565
		L972.778,223.086z"/>
	<path fill="#01B69B" d="M1012.159,298.6c0.117-0.012,0.237-0.026,0.361-0.043c2.008-0.279,2.676-1.653,2.896-3.559
		c0.347-3.036-4.04-3.143-5.848-1.811C1006.519,295.434,1008.66,298.943,1012.159,298.6z"/>
	<path fill="#01B69B" d="M1010.511,306.837c2.247-1.936-0.141-5.32-2.561-3.817C1005.816,304.344,1007.963,309.031,1010.511,306.837
		z"/>
</g>
</svg>
