<?xml version="1.0" encoding="utf-8"?>
<!-- Generator: Adobe Illustrator 16.0.0, SVG Export Plug-In . SVG Version: 6.00 Build 0)  -->
<!DOCTYPE svg PUBLIC "-//W3C//DTD SVG 1.1//EN" "http://www.w3.org/Graphics/SVG/1.1/DTD/svg11.dtd">
<svg version="1.1" id="Layer_1" xmlns="http://www.w3.org/2000/svg" xmlns:xlink="http://www.w3.org/1999/xlink" x="0px" y="0px"
	 width="425.665px" height="496.074px" viewBox="785.798 214.305 425.665 496.074"
	 enable-background="new 785.798 214.305 425.665 496.074" xml:space="preserve">
<g>
	<g>
		<path fill="#00A1DD" d="M1077.371,480.224c-21.639,24.919-3.395,65.373,28.551,65.812c10.936,0.15,20.615-3.101,30.57-7.346
			c5.742-2.447,13.713-9.27,19.102-8.968c1.896,0.106,5.227,2.621,7.029,3.32c4.592,1.785,9.586,2.899,14.537,3.042
			c9.787,0.281,19.984-3.788,26.396-10.869c-10.086-0.113-16.527-6.588-22.961-13.151c1.646-4.221,7.188-7.179,9.994-10.998
			c2.131-2.9,3.992-6.823,5.279-10.169c3.295-8.57,2.611-18.389-2.229-25.85c-11.953-18.426-37.902-17.275-57.041-15.309
			C1113.955,452.067,1092.469,462.837,1077.371,480.224z"/>
		<path fill="#01B69B" d="M1003.965,278.257c4.803,10.683,9.086,21.239,12.596,32.378c3.875-11.841,7.215-21.601,5.703-34.239
			c-1.367-11.439-0.654-53.771-20.162-53.777C977.48,222.61,1000.006,269.454,1003.965,278.257z"/>
		<path fill="#01B69B" d="M1022.488,346.46c10.338,1.041,14.35-16.271,4.842-19.835C1014.689,321.885,1008.002,345,1022.488,346.46z
			"/>
		<g>
			<path fill="#00BAD2" d="M1021.309,618.215c5.105,4.123,12.986,3.066,15.611-3.352c2.422-5.914-1.781-16.029,10.404-12.182
				c8.213,2.592,11.111,12.756,10.156,20.361c-0.736,5.851-3.352,14.176-9.15,16.982c-5.141,2.486-13.496-0.361-18.188,3.688
				c-3.355,2.899-5.525,19.869-2.328,22.38c6.424,5.041,8.359-9.295,8.127-12.656c5.719-0.123,16.889-2.984,22.049-6.135
				c7.613-4.648,12.242-13.236,13.713-21.911c1.385-8.177,2.777-16.177,2.811-24.442c0.012-2.738,0.326-5.498-0.006-8.221
				c-2.336-19.13-30.725-18.938-42.863-10.246C1021.9,589.459,1008.438,607.82,1021.309,618.215z"/>
			<path fill="#00BAD2" d="M1017.703,701.195c11.629,5.757,22.295-18.858,8.492-21.101
				C1015.598,678.374,1006.451,695.626,1017.703,701.195z"/>
		</g>
		<path fill="#DE8AAF" d="M869.65,435.913c8.174,4.868,15.955,10.336,24.289,15.121c10.283,5.902,12.482,12.76,8.777,23.658
			c-5.385,15.835-21.939,28.663-36.23,36.387c18.984-3.143,39.072-7.002,55.006,6.691c7.514,6.459,17.371,27.685,16.094,38.14
			c0.178-21.08,16.91-41.772,35.279-50.443c13.049-6.16,27.09-7.776,40.926-9.757c-7.404-5.231-18.826-3.163-26.871-10.254
			c-5.486-4.837-8.139-10.624-7.334-18.024c1.576-14.483,18.693-28.246,30.65-34.434c-13.752,4.649-33.293,20.018-47.551,8.682
			c-13.381-10.638-8.133-36.721-8.016-51.325c-0.779,13.056-7.537,31.887-18.334,39.846c-5.488,4.045-14.039,4.343-20.57,4.784
			c-10.346,0.698-21.062-1.155-31.32-2.1c-6.576-0.606-14.535-0.282-20.795-2.972L869.65,435.913z"/>
		<path fill="none" stroke="#00A1DD" stroke-width="5" stroke-miterlimit="10" d="M1057.65,367.913
			c-12.543,10.256-21.57,26.851-12.221,42.489c11.865,19.842,42.797,22.523,53.264,0.621c4.918-10.293,4.408-21.3-3.865-29.004
			c-10-9.311-20.914-9.271-29.297,1.749c-5.873,7.72-10.32,21.849,0.803,27.017c8.18,3.801,16.885-1.101,20.332-9.023
			c7.432-17.082-17.234-19.69-13.863-3c1.938,0.304,3.887,0.354,5.848,0.151"/>
		<path fill="#01B69B" d="M886.697,598.986c5.77-11.436-11.445-14.049-15.469-3.542
			C867.408,605.416,883.203,605.912,886.697,598.986z"/>
		<path fill="#00A1DD" d="M906.65,612.913c-5.635,4.412,1.986,11.58,6.801,8.849c5.721-3.245,0.525-10.821-4.801-9.849
			L906.65,612.913z"/>
		<path fill="#00A1DD" d="M971.77,568.765c6.686-7.386-7.461-12.313-11.893-6.616C954.459,569.115,967.109,573.915,971.77,568.765z"
			/>
		<path fill="#DE8AAF" d="M1078.5,323.77c7.26-5.635-0.6-15.282-7.641-10.17C1063.771,318.745,1070.799,329.746,1078.5,323.77z"/>
		<path fill="none" stroke="#CACCCE" stroke-width="6" stroke-miterlimit="10" d="M903.65,346.913
			c-2.914,5.086-16.256-4.238-19.18-6.889c-17.107-15.508-1.072-40.058,18.5-41.789c5.152,7.807,4.367,13.719,3.479,22.859
			c-0.332,3.421-2.209,8.812-0.543,12.105c5.49-2.349,21.5-14.467,26.064-7.596c6.5,9.783-6.113,23.487-14.607,25.601
			c-5.07,1.262-7.965,1.646-11.861-2.12c-4.461-4.312-8.164-11.823-12.098-16.671c-2.316-2.852-9.691-9.954-10.281-14.596
			c5.555-5.146,14.859-2.071,21.617-2.748c12.205-1.223,9.719-8.881,16-17.142c8.996-11.828,17.941,4.92,21.842,13.508
			c2.283,5.023,5.004,10.147,5.139,15.742c0.037,1.509-1.525,3.438-1.248,4.81c0.273,1.356,3.045,1.809,3.051,2.909
			c0.045,7.49-6.967,15.57-12.936,20.05c-3.838,2.88-8.453,3.084-8.67,8.89c-9.5,1.046-26.619,3.08-35.451-0.781
			c3.426-5.539,9.475-7.854,15.537-9.186c6.758-1.483,8.076,0.444,13.57-5.795c3.475-3.948,6.332-10.18,8.076-15.162"/>
	</g>
	<g>
		<path fill="none" stroke="#F7993E" stroke-width="3" stroke-miterlimit="10" d="M815.705,227.958
			c-0.307,8.733-3.16,18.032-4.666,26.667"/>
	</g>
	<g>
		<path fill="none" stroke="#F7993E" stroke-width="3" stroke-miterlimit="10" d="M833.039,229.958
			c1.795,9.018-5.385,18.819-5.334,28"/>
	</g>
	<g>
		<path fill="none" stroke="#F7993E" stroke-width="3" stroke-miterlimit="10" d="M793.705,263.958
			c3.387,0.271,6.428,3.707,9.773,4.68c7.414,2.156,13.797,0.195,20.629-2.082c8.689-2.896,20.301-5.5,16.861,8.782
			c-3.303,13.723-24.084,15.187-33.916,9.448c-7.178-4.19-10.021-6.546-10.014-14.828"/>
	</g>
</g>
</svg>
