<?xml version="1.0" encoding="utf-8"?>
<!-- Generator: Adobe Illustrator 16.0.0, SVG Export Plug-In . SVG Version: 6.00 Build 0)  -->
<!DOCTYPE svg PUBLIC "-//W3C//DTD SVG 1.1//EN" "http://www.w3.org/Graphics/SVG/1.1/DTD/svg11.dtd">
<svg version="1.1" id="Layer_1" xmlns="http://www.w3.org/2000/svg" xmlns:xlink="http://www.w3.org/1999/xlink" x="0px" y="0px"
	 width="213.18px" height="246.285px" viewBox="861.487 385.544 213.18 246.285"
	 enable-background="new 861.487 385.544 213.18 246.285" xml:space="preserve">
<g>
	<g opacity="0.3">
		<path fill="#F7993E" d="M861.487,454.147c0-5.5,3.897-12.25,8.66-15l89.27-51.541c4.763-2.75,12.558-2.75,17.32,0l89.27,51.541
			c4.763,2.75,8.66,9.5,8.66,15v103.078c0,5.5-3.897,12.25-8.66,15l-89.27,51.541c-4.763,2.75-12.558,2.75-17.32,0l-89.27-51.541
			c-4.763-2.75-8.66-9.5-8.66-15V454.147z"/>
	</g>
	<g>
		<path fill="#F7993E" d="M861.487,460.147c0-5.5,3.897-12.25,8.66-15l89.27-51.541c4.763-2.75,12.558-2.75,17.32,0l89.27,51.541
			c4.763,2.75,8.66,9.5,8.66,15v103.078c0,5.5-3.897,12.25-8.66,15l-89.27,51.541c-4.763,2.75-12.558,2.75-17.32,0l-89.27-51.541
			c-4.763-2.75-8.66-9.5-8.66-15V460.147z"/>
	</g>
	<text transform="matrix(1 0 0 1 894.1582 520.7764)" fill="#FFFFFF" font-family="'Gotham-Book'" font-size="30">Expresión</text>
</g>
</svg>
