<?xml version="1.0" encoding="utf-8"?>
<!-- Generator: Adobe Illustrator 16.0.0, SVG Export Plug-In . SVG Version: 6.00 Build 0)  -->
<!DOCTYPE svg PUBLIC "-//W3C//DTD SVG 1.1//EN" "http://www.w3.org/Graphics/SVG/1.1/DTD/svg11.dtd">
<svg version="1.1" id="Layer_1" xmlns="http://www.w3.org/2000/svg" xmlns:xlink="http://www.w3.org/1999/xlink" x="0px" y="0px"
	 width="639.117px" height="169.71px" viewBox="0 0 639.117 169.71" enable-background="new 0 0 639.117 169.71"
	 xml:space="preserve">
<g>
	<g>
		<g>
			<g>
				<g>
					<path fill="#6ACFF6" d="M475.338,114.925c0,0-0.145,0.005-0.421,0.015c-0.281,0.001-0.696,0.021-1.198,0.108
						c-1.021,0.138-2.522,0.533-4.375,1.152c-1.854,0.635-4.062,1.552-6.533,2.71c-1.236,0.58-2.533,1.236-3.864,1.972
						c-0.653,0.369-1.324,0.749-2.011,1.138c-0.321,0.209-0.645,0.421-0.973,0.634c-0.255,0.209-0.517,0.421-0.777,0.635
						c-0.531,0.486-1.063,0.998-1.461,1.567c-0.43,0.552-0.739,1.157-0.871,1.663c-0.139,0.521-0.098,0.846-0.003,0.941
						c0.077,0.1,0.325,0.311,0.837,0.549c0.139,0.052,0.275,0.108,0.409,0.17c0.156,0.051,0.345,0.086,0.514,0.133l0.259,0.068
						l0.13,0.037c-0.053-0.013,0.162,0.039-0.109-0.025l0.046,0.008l0.093,0.016l0.371,0.059c0.126,0.02,0.266,0.045,0.292,0.028
						c0.129-0.017,0.174,0.002,0.365-0.013c0.177-0.018,0.334-0.005,0.528-0.037c0.369-0.039,0.766-0.104,1.199-0.195
						c0.867-0.182,1.858-0.447,3.028-0.662c1.164-0.213,2.549-0.401,4.115-0.215c0.393,0.064,0.787,0.128,1.18,0.224l0.588,0.177
						l0.294,0.094l0.072,0.025c-0.029-0.018,0.549,0.24,0.325,0.141l0.092,0.043l0.733,0.344c0.437,0.256,0.917,0.59,1.342,0.926
						c1.452,1.246,2.135,2.676,2.613,3.363c0.109,0.142,0.23,0.354,0.321,0.441l0.128,0.145c0.037,0.049,0.069,0.09,0.188,0.21
						c0.371,0.382,0.792,0.845,1.119,1.154c0.703,0.761,1.27,1.22,1.849,1.577c0.532,0.361,1.327,0.588,2.187,0.842l1.432,0.306
						l1.551,0.223l1.689,0.243c0.564,0.082,1.039,0.082,1.563,0.129c1.03,0.062,2.029,0.184,3.111,0.16
						c1.06,0,2.135,0.105,3.183,0.023c1.07-0.064,2.066-0.082,3.192-0.178c2.255-0.205,4.5-0.41,6.728-0.615
						c4.414-0.448,8.708-0.843,12.77-1.588c4.049-0.753,7.9-1.64,11.324-2.957c3.408-1.33,6.42-2.99,8.737-5.054l0.114-0.092
						c0.026-0.024-0.124,0.138-0.047,0.056l0.028-0.028l0.056-0.058l0.224-0.227l0.446-0.449c0.279-0.293,0.635-0.613,0.788-0.852
						c0.206-0.254,0.408-0.506,0.609-0.754c0.184-0.264,0.338-0.545,0.516-0.814c0.632-1.09,0.918-2.17,0.779-3.166
						c-0.067-0.24-0.073-0.5-0.17-0.734c-0.103-0.237-0.203-0.471-0.302-0.7c-0.301-0.421-0.559-0.872-0.944-1.233
						c-0.324-0.409-0.772-0.693-1.147-1.023c-0.414-0.287-0.835-0.541-1.235-0.786c-1.659-0.905-3.163-1.331-4.172-1.634
						c-1.036-0.232-1.589-0.357-1.589-0.357l0.027-0.398c0,0,0.572,0.061,1.646,0.174c1.057,0.199,2.646,0.412,4.518,1.215
						c0.458,0.217,0.942,0.446,1.433,0.717c0.462,0.322,0.992,0.592,1.438,1.028c0.495,0.376,0.895,0.888,1.321,1.407
						c0.165,0.295,0.333,0.594,0.506,0.898c0.16,0.31,0.23,0.668,0.351,1.008c0.367,1.416,0.101,3.015-0.566,4.458
						c-0.186,0.354-0.346,0.728-0.559,1.077c-0.232,0.339-0.467,0.682-0.706,1.027c-0.224,0.363-0.518,0.649-0.787,0.972
						c-0.286,0.315-0.529,0.636-0.857,0.956c-2.422,2.486-5.628,4.545-9.238,6.132c-3.617,1.595-7.63,2.753-11.831,3.632
						c-4.204,0.878-8.6,1.488-13.07,1.969c-4.461,0.432-9.008,1.11-13.625,0.945c-1.148,0.019-2.298-0.133-3.445-0.219
						c-1.156-0.068-2.28-0.248-3.401-0.431c-2.248-0.313-4.564-0.759-6.589-1.974c-0.991-0.621-1.854-1.412-2.604-2.242
						c-0.396-0.408-0.752-0.824-1.126-1.234c-0.377-0.425-0.732-0.904-1.02-1.384c-0.577-0.96-1.062-1.917-1.829-2.581l-0.58-0.443
						l-0.723-0.363c-0.426-0.188-0.952-0.324-1.445-0.406c-2.04-0.278-4.087,0.361-6.142,0.666
						c-1.036,0.154-2.075,0.236-3.139,0.094c-0.269-0.025-0.499-0.094-0.749-0.139c-0.274-0.053-0.496-0.152-0.746-0.226
						c-0.241-0.083-0.486-0.151-0.725-0.247l-0.688-0.341c-0.885-0.489-1.729-1.197-2.101-2.192
						c-0.376-0.993-0.208-2.061,0.143-2.945c0.352-0.9,0.885-1.69,1.491-2.368c0.588-0.701,1.276-1.274,1.963-1.81
						c1.415-1.078,2.925-1.719,4.347-2.381c1.429-0.643,2.804-1.202,4.11-1.69c2.608-0.99,4.945-1.687,6.898-2.148
						c1.956-0.463,3.529-0.652,4.623-0.679c0.555-0.023,0.965,0.004,1.237,0.035c0.275,0.021,0.417,0.033,0.417,0.033
						L475.338,114.925z"/>
				</g>
				<g>
					<path fill="#6ACFF6" d="M464.215,105.394c0,0-0.273,0.166-0.803,0.49c-0.282,0.141-0.649,0.314-1.084,0.506
						c-0.44,0.154-0.948,0.365-1.538,0.518c-2.349,0.719-5.933,1.115-10.318,1.669c-1.088,0.169-2.233,0.345-3.362,0.658
						c-1.079,0.304-2.336,0.782-3.602,1.222c-2.55,0.893-5.28,1.873-8.113,3.043c-2.791,1.203-5.764,2.617-8.228,4.598
						c-0.297,0.25-0.638,0.48-0.906,0.745c-0.323,0.304-0.647,0.61-0.974,0.917c-0.584,0.598-1.18,1.19-1.76,1.854
						c-1.15,1.306-2.278,2.691-3.201,4.199c-0.929,1.498-1.713,3.096-2.149,4.715c-0.443,1.621-0.481,3.23,0.029,4.627
						c0.489,1.41,1.538,2.643,2.915,3.771l1.258,0.992l1.155,0.742c0.362,0.26,0.81,0.489,1.244,0.724
						c0.442,0.224,0.854,0.496,1.322,0.687c1.801,0.871,3.766,1.522,5.793,2.09c2.044,0.538,4.184,0.93,6.377,1.256
						c4.41,0.603,9.043,0.939,13.904,1.38l1.933,0.198l1.792,0.25c0.643,0.107,1.354,0.263,2.029,0.398
						c0.685,0.143,1.296,0.329,1.948,0.494c2.558,0.717,5.003,1.684,7.344,2.721c0.592,0.257,1.17,0.521,1.742,0.791l0.863,0.4
						c0.113,0.057-0.1-0.057,0.281,0.141l0.102,0.057l0.204,0.111l0.409,0.223c0.56,0.32,1.04,0.529,1.722,1.014
						c0.612,0.42,1.33,0.877,1.843,1.293c2.191,1.688,3.996,3.461,5.787,4.839c0.894,0.678,1.772,1.311,2.659,1.767l0.332,0.189
						l0.166,0.096c-0.266-0.121-0.014-0.008-0.041-0.021l0.107,0.047l0.872,0.374l1.747,0.751c1.075,0.33,2.039,0.698,3.164,0.994
						c1.15,0.256,2.262,0.611,3.45,0.779c4.678,0.872,9.585,1.106,14.518,0.994c9.864-0.186,19.933-1.742,29.613-3.693
						c9.212-2.113,18.141-6.043,25.112-11.76c3.51-2.83,6.533-6.096,8.926-9.658l0.876-1.344l0.22-0.336
						c-0.012,0.024,0.102-0.172-0.012,0.033l0.052-0.095l0.103-0.188l0.407-0.756l0.398-0.745l0.25-0.612
						c0.177-0.4,0.356-0.805,0.477-1.268c0.577-1.782,0.743-3.578,0.471-5.311c-0.518-3.49-2.883-6.639-5.717-9.135
						c-2.848-2.525-6.182-4.471-9.52-6.012c-3.349-1.545-6.748-2.666-10.023-3.478c-1.637-0.407-3.253-0.728-4.822-0.919
						c-1.531-0.189-3.172-0.273-4.726-0.393c-6.226-0.428-11.66-0.883-16.124-1.113c-4.467-0.221-7.979-0.509-10.376-0.654
						c-2.397-0.162-3.677-0.247-3.677-0.247v-0.4c0,0,5.119,0.082,14.08,0.226c4.482,0.061,9.913,0.307,16.15,0.494
						c6.253-0.078,13.362,1.259,20.462,4.271c3.541,1.515,7.12,3.445,10.334,6.123c1.603,1.337,3.108,2.867,4.346,4.652
						c1.236,1.777,2.185,3.83,2.584,6.045c0.411,2.209,0.243,4.543-0.413,6.742c-0.653,2.223-1.758,4.263-3.029,6.209
						c-2.496,3.931-5.737,7.48-9.449,10.566c-7.423,6.203-16.693,10.525-26.557,12.818c-9.882,2.039-20.045,3.678-30.331,3.932
						c-5.134,0.1-10.301-0.172-15.347-1.138c-5.01-1.002-10.077-2.558-14.091-5.804c-2.004-1.572-3.79-3.346-5.746-4.856
						c-0.984-0.739-1.946-1.452-3.063-2.032c-0.264-0.146-0.555-0.32-0.796-0.441l-0.836-0.402c-0.556-0.27-1.113-0.533-1.674-0.785
						c-2.235-1.024-4.5-1.945-6.816-2.625c-1.161-0.346-2.324-0.607-3.498-0.836l-1.789-0.273l-1.778-0.201
						c-4.762-0.506-9.481-0.869-14.059-1.613c-2.286-0.389-4.538-0.851-6.724-1.479c-2.173-0.658-4.298-1.414-6.278-2.427
						c-0.509-0.224-0.972-0.536-1.456-0.798c-0.479-0.272-0.962-0.535-1.407-0.863l-1.358-0.935l-1.241-1.023
						c-1.644-1.402-3.081-3.127-3.702-5.195c-0.651-2.052-0.47-4.237,0.13-6.169c0.596-1.949,1.549-3.711,2.614-5.324
						c1.066-1.623,2.31-3.061,3.572-4.408c1.293-1.334,2.556-2.607,4.019-3.629c2.864-2.099,5.975-3.399,8.886-4.527
						c2.936-1.08,5.726-1.96,8.306-2.754c1.294-0.391,2.51-0.809,3.738-1.102c1.221-0.285,2.402-0.417,3.52-0.547
						c2.236-0.227,4.232-0.338,5.959-0.509c1.727-0.163,3.183-0.383,4.337-0.659c0.583-0.119,1.074-0.297,1.507-0.425
						c0.416-0.16,0.757-0.3,1.037-0.421c0.545-0.295,0.826-0.447,0.826-0.447L464.215,105.394z"/>
				</g>
				<g>
					<path fill="#6ACFF6" d="M242.004,117.518c0,0-0.858,0.067-2.462,0.195c-1.601,0.131-3.947,0.368-6.827,0.874
						c-2.868,0.517-6.244,1.641-9.244,4.16c-0.704,0.672-1.507,1.342-2.181,2.049l-0.563,0.623l-0.449,0.58
						c-0.299,0.377-0.59,0.83-0.854,1.258c-1.061,1.748-1.666,3.748-1.24,5.545c0.21,0.897,0.627,1.766,1.298,2.568
						c0.353,0.391,0.693,0.797,1.141,1.152l0.316,0.277l0.078,0.07c-0.023-0.02,0.108,0.091-0.041-0.033l0.051,0.037l0.208,0.152
						l0.836,0.611c1.146,0.895,2.195,1.475,3.274,2.157c1.184,0.612,2.356,1.298,3.648,1.824c2.521,1.153,5.266,2.074,8.127,2.852
						c2.858,0.779,5.839,1.461,8.916,1.987c6.156,1.129,12.63,1.604,19.349,2.19c3.362,0.302,6.75,0.604,10.152,0.909
						c3.409,0.342,6.833,0.686,10.257,1.027c3.4,0.385,6.801,0.768,10.188,1.15c3.385,0.387,6.751,0.739,10.085,1.061
						c6.679,0.649,13.226,1.305,19.573,1.676c3.174,0.265,6.289,0.246,9.343,0.441c1.557,0.074,3.095,0.147,4.614,0.22
						c1.508,0.073,3.084,0.218,4.579,0.328c5.937,0.511,11.411,1.232,16.452,1.55c5.033,0.297,9.627,0.296,13.64-0.238
						c1.005-0.135,1.985-0.242,2.896-0.482c0.915-0.221,1.825-0.369,2.661-0.627c0.833-0.273,1.634-0.535,2.396-0.785
						c0.391-0.111,0.754-0.26,1.099-0.428c0.351-0.158,0.692-0.312,1.024-0.461c0.658-0.313,1.316-0.557,1.881-0.883
						c0.568-0.324,1.1-0.629,1.596-0.913c0.496-0.286,0.965-0.541,1.38-0.796c0.394-0.289,0.749-0.553,1.068-0.787
						c1.286-0.95,1.972-1.456,1.972-1.456l0.279,0.287c0,0-0.653,0.563-1.875,1.62c-0.306,0.264-0.647,0.559-1.023,0.883
						c-0.4,0.292-0.856,0.588-1.34,0.919c-0.485,0.329-1.006,0.683-1.562,1.06c-0.561,0.368-1.22,0.658-1.879,1.02
						c-0.334,0.176-0.678,0.355-1.029,0.539c-0.348,0.194-0.715,0.369-1.108,0.508c-0.775,0.306-1.588,0.625-2.433,0.958
						c-0.853,0.319-1.777,0.528-2.715,0.813c-0.936,0.304-1.938,0.476-2.968,0.676c-4.121,0.807-8.866,1.094-14.014,0.979
						c-5.151-0.099-10.707-0.589-16.574-0.938c-5.854-0.353-12.087-0.197-18.511-0.496c-6.425-0.273-13.056-0.732-19.773-1.359
						c-6.725-0.588-13.537-1.349-20.353-2.062c-6.808-0.753-13.616-1.463-20.335-2.082c-6.715-0.601-13.345-1.302-19.665-2.562
						c-3.159-0.619-6.249-1.349-9.213-2.278c-2.965-0.909-5.824-1.971-8.479-3.29c-1.353-0.605-2.598-1.381-3.852-2.088
						c-1.198-0.811-2.42-1.567-3.466-2.469c-1.094-0.824-2.146-1.807-2.956-2.897c-0.823-1.098-1.376-2.379-1.595-3.688
						c-0.445-2.659,0.556-5.199,1.9-7.128c0.684-0.961,1.451-1.876,2.257-2.623c0.83-0.765,1.703-1.409,2.513-2.087
						c3.42-2.525,7.124-3.494,10.096-3.848c2.993-0.369,5.364-0.371,6.97-0.395c1.606-0.004,2.461-0.007,2.461-0.007
						L242.004,117.518z"/>
				</g>
				<g>
					<path fill="#6ACFF6" d="M118.469,125.286c0,0-0.877,0.561-2.412,1.543c-0.743,0.492-1.646,1.09-2.68,1.775
						c-1.003,0.697-2.112,1.516-3.168,2.398c-0.486,0.451-1.021,0.945-1.289,1.396c-0.099,0.117-0.124,0.213-0.163,0.291
						l-0.067,0.119c0.005,0.023,0.022,0.033,0.025,0.044l0.006,0.012v0.004l-0.001,0.001l-0.001,0.002
						c0.021-0.061-0.049,0.137,0.048-0.137l-0.069,0.318c-0.017,0.092-0.063,0.248-0.053,0.287c0.017,0.02,0.029,0.035,0.036,0.049
						c0.005,0.008,0.044,0.109,0.049,0.164c0.03,0.055,0.048,0.1,0.079,0.137c0.051,0.071,0.138,0.125,0.222,0.211
						c0.236,0.155,0.577,0.502,1.188,0.791c0.586,0.3,1.314,0.578,2.108,0.813c0.798,0.226,1.655,0.437,2.539,0.654
						c1.779,0.413,3.672,0.688,5.654,0.934c1.813,0.294,3.809,0.47,5.725,0.595c1.93,0.092,3.832,0.293,5.667,0.323
						c1.833,0.023,3.601,0.095,5.258,0.04c1.651-0.074,3.202-0.153,4.587-0.354c1.373-0.224,2.598-0.496,3.571-0.905
						c0.961-0.421,1.702-0.926,2.161-1.522c0.136-0.141,0.223-0.295,0.303-0.447c0.08-0.15,0.199-0.285,0.245-0.434
						c0.101-0.291,0.24-0.551,0.271-0.776c0.1-0.464,0.153-0.71,0.153-0.71l0.396-0.055c0,0,0.019,0.266,0.054,0.761
						c0.007,0.491-0.035,1.249-0.411,2.114c-0.362,0.868-1.11,1.784-2.166,2.52c-1.049,0.746-2.374,1.345-3.862,1.799
						c-2.982,0.914-6.591,1.357-10.441,1.504c-1.929,0.07-3.922,0.067-5.946-0.006c-2.022-0.084-4.073-0.211-6.125-0.488
						c-2.032-0.292-4.069-0.644-6.041-1.151c-1.967-0.513-3.897-1.156-5.587-2.208c-0.842-0.521-1.605-1.195-2.144-2.04
						c-0.52-0.86-0.712-1.899-0.517-2.84c0.045-0.243,0.095-0.477,0.17-0.673l0.102-0.308c0.064-0.141,0.113-0.222,0.172-0.335
						c0.103-0.221,0.234-0.408,0.386-0.576c0.139-0.178,0.278-0.354,0.441-0.492c0.611-0.622,1.299-1.066,1.948-1.501
						c2.664-1.631,5.098-2.502,6.778-3.138c1.69-0.614,2.684-0.887,2.684-0.887L118.469,125.286z"/>
				</g>
				<g>
					<path fill="#6ACFF6" d="M98.578,126.154c0,0-0.505,0.188-1.451,0.542c-0.453,0.205-0.953,0.523-1.547,0.844
						c-0.284,0.205-0.589,0.426-0.913,0.662c-0.163,0.113-0.331,0.23-0.502,0.352c-0.161,0.141-0.325,0.285-0.493,0.434
						c-1.358,1.148-2.823,2.782-4.073,4.859c-0.269,0.523-0.615,1.105-0.843,1.611c-0.14,0.316-0.281,0.639-0.426,0.964
						c-0.086,0.272-0.174,0.548-0.265,0.827c-0.342,1.191-0.344,2.232,0.093,2.991c0.412,0.788,1.453,1.632,2.77,2.413
						c1.33,0.795,2.849,1.555,4.518,2.389c3.293,1.66,6.693,3.299,10.244,4.855c1.769,0.798,3.596,1.45,5.438,2.111
						c0.929,0.286,1.864,0.573,2.804,0.861c0.938,0.281,1.892,0.49,2.842,0.742c0.945,0.28,1.921,0.393,2.888,0.574l1.453,0.256
						l0.094,0.016c0.111,0.016-0.104-0.012-0.063-0.007l0.051,0.005l0.197,0.02l0.397,0.041l0.793,0.079
						c1.046,0.092,2.155,0.247,3.152,0.287l2.993,0.136c4.106,0.168,8.312,0.17,12.479,0.035c2.082-0.064,4.161-0.116,6.224-0.139
						c2.076-0.028,4.127-0.057,6.145-0.084c0.472-0.002,0.94-0.006,1.407-0.008c0.497-0.018,0.991-0.035,1.482-0.053
						c0.984-0.042,1.961-0.058,2.927-0.072c0.99,0.01,1.844-0.111,2.753-0.164c0.897-0.066,1.783-0.132,2.659-0.197
						c1.79-0.207,3.531-0.41,5.217-0.605c1.7-0.227,3.344-0.445,4.92-0.656c0.761-0.139,1.505-0.275,2.233-0.41
						c0.753-0.143,1.366-0.35,2.046-0.494c0.654-0.139,1.326-0.359,1.973-0.551c0.646-0.195,1.277-0.379,1.888-0.596
						c2.432-0.826,4.614-1.581,6.414-2.152c1.808-0.578,3.257-0.945,4.254-1.156c0.991-0.221,1.518-0.338,1.518-0.338l0.122,0.381
						c0,0-0.502,0.178-1.442,0.512c-0.947,0.312-2.302,0.873-4.021,1.602c-1.715,0.74-3.766,1.71-6.166,2.744
						c-2.394,1.016-5.177,2.129-8.325,2.814c-1.573,0.318-3.212,0.651-4.909,0.996c-1.707,0.291-3.473,0.592-5.289,0.9
						c-1.831,0.211-3.713,0.514-5.64,0.664c-1.93,0.109-3.881,0.297-5.901,0.351c-4.006,0.179-8.144,0.364-12.348,0.552
						c-4.211,0.186-8.496,0.242-12.789,0.119l-3.224-0.188c-1.074-0.061-2.125-0.223-3.187-0.33
						c-0.534-0.064-1.046-0.107-1.596-0.189l-1.577-0.295c-1.047-0.209-2.104-0.353-3.12-0.662c-4.13-0.982-8.014-2.555-11.652-4.26
						c-3.645-1.704-7.047-3.59-10.241-5.403c-1.596-0.905-3.174-1.771-4.608-2.774c-1.41-1.007-2.777-2.166-3.429-3.754
						c-0.653-1.59-0.356-3.309,0.194-4.671c0.152-0.343,0.303-0.682,0.453-1.016c0.17-0.312,0.34-0.62,0.506-0.924
						c0.357-0.615,0.755-1.161,1.111-1.718c1.55-2.139,3.299-3.683,4.862-4.743c0.193-0.136,0.381-0.269,0.564-0.397
						c0.196-0.107,0.388-0.214,0.572-0.316c0.37-0.203,0.718-0.393,1.04-0.57c0.693-0.268,1.279-0.53,1.762-0.679
						c0.974-0.233,1.493-0.357,1.493-0.357L98.578,126.154z"/>
				</g>
				<g>
					<path fill="#6ACFF6" d="M19.963,120.093c0,0-0.317,0.232-0.995,0.629c-0.668,0.38-1.647,0.941-2.923,1.537
						c-1.254,0.607-2.778,1.346-4.523,2.191c-1.708,0.855-3.604,1.871-5.391,3.101c-1.771,1.2-3.287,3.014-3.102,4.056
						c0.051,0.289,0.092,0.58,0.272,0.941c0.054,0.17,0.211,0.371,0.298,0.559l0.009,0.018c-0.035-0.064,0.092,0.17-0.078-0.139
						l0.038,0.055l0.076,0.111l0.149,0.223c0.065,0.109,0.059,0.051,0.075,0.061c0.011-0.004,0.019-0.006,0.019-0.006
						c0.379,0.309,1.268,0.85,2.39,1.148c1.129,0.32,2.449,0.524,3.831,0.643c1.388,0.103,2.841,0.156,4.331,0.197
						c1.493,0.024,3.019,0.003,4.602-0.031l2.456-0.031l2.343-0.019c3.207,0.036,6.497,0.108,9.771,0.402
						c1.641,0.132,3.277,0.362,4.912,0.697c1.637,0.336,3.272,0.758,4.92,1.384c1.628,0.667,3.37,1.463,4.875,3.133
						c0.364,0.437,0.714,0.887,0.998,1.426l0.107,0.195l0.053,0.098l0.025,0.05c0.176,0.366,0.056,0.119,0.098,0.209l0.092,0.249
						l0.188,0.508c0.43,1.301,0.482,2.395,0.336,3.493c-0.17,1.079-0.546,1.952-0.903,2.679c-0.369,0.736-0.718,1.289-1.036,1.805
						c-0.633,1.012-0.974,1.729-1.067,2.447l-0.013,0.068l-0.008,0.033l-0.003,0.018c0.001,0.041-0.028-0.311-0.016-0.147
						l0.008,0.224l0.016,0.441l0.017,0.436c0.02,0.061,0.035,0.123,0.046,0.186c0.003,0.241,0.134,0.582,0.261,0.865
						c0.269,0.565,0.817,1.072,1.548,1.418c1.448,0.7,3.135,0.996,4.474,1.205c2.781,0.389,4.37,0.611,4.37,0.611l0.002,0.4
						c0,0-0.397,0.008-1.143,0.021c-0.745,0.017-1.84,0.062-3.241,0.057c-1.395-0.033-3.133-0.037-5.037-0.662
						c-0.943-0.304-1.933-0.869-2.633-1.793c-0.339-0.459-0.631-0.982-0.781-1.578l-0.135-0.442l-0.055-0.433
						c-0.023-0.305-0.101-0.551-0.083-0.912c-0.026-1.266,0.434-2.521,1.016-3.676c0.565-1.162,1.24-2.32,1.395-3.607
						c0.063-0.639-0.034-1.295-0.23-1.896c-0.272-0.672-0.564-1.213-1.049-1.715c-0.958-0.973-2.28-1.609-3.654-2.099
						c-2.786-0.938-5.856-1.331-8.962-1.563c-3.113-0.23-6.292-0.252-9.475-0.236c-3.199-0.051-6.358,0.023-9.521-0.072
						c-3.144-0.125-6.278-0.381-9.181-1.352c-1.431-0.506-2.841-1.212-3.828-2.405c-0.513-0.612-0.783-1.28-1.025-1.979
						c-0.243-0.695-0.312-1.44-0.279-2.166c0.142-1.466,0.928-2.73,1.869-3.649c0.938-0.941,2.001-1.649,3.049-2.251
						c2.109-1.185,4.171-1.98,6.002-2.642c1.834-0.657,3.451-1.164,4.775-1.597c1.326-0.427,2.358-0.779,3.05-1.046
						c0.679-0.264,1.042-0.444,1.042-0.444L19.963,120.093z"/>
				</g>
				<g>
					<path fill="#6ACFF6" d="M388.08,94.647c0,0,0.26-0.046,0.748-0.133c0.244-0.037,0.546-0.084,0.897-0.139
						c0.322-0.092,0.691-0.196,1.107-0.314c0.389-0.092,0.848-0.264,1.345-0.445c0.489-0.178,1.025-0.35,1.603-0.58
						c0.581-0.225,1.198-0.464,1.851-0.716c0.645-0.259,1.396-0.478,2.15-0.735c0.793-0.221,1.609-0.487,2.54-0.658
						c0.466-0.092,0.947-0.148,1.437-0.219c0.478-0.018,0.963-0.035,1.453-0.054c0.881-0.036,1.785-0.073,2.709-0.11
						c0.974,0.005,1.982,0.125,3.006,0.188c0.972,0.072,1.961,0.145,2.962,0.217c0.477,0.033,0.956,0.066,1.437,0.101
						c0.475,0.046,0.975,0.128,1.42,0.124c0.912,0.031,1.83,0.062,2.753,0.094c1.02,0.061,1.993-0.017,3.094,0.029
						c2.142,0.106,4.041,0.234,5.821,0.181c0.432-0.022,0.861-0.045,1.286-0.067c0.409-0.031,0.814-0.062,1.219-0.094
						c0.378-0.066,0.753-0.131,1.126-0.196l0.07-0.011l0.035-0.006c-0.202,0.067-0.043,0.015-0.083,0.028l0.022-0.007l0.176-0.05
						l0.349-0.101l0.693-0.2c0.459-0.133,0.917-0.265,1.368-0.396c0.407-0.146,0.82-0.268,1.23-0.387
						c0.413-0.122,0.822-0.242,1.227-0.362c0.429-0.138,0.853-0.274,1.271-0.409c0.829-0.263,1.65-0.547,2.486-0.769
						c0.821-0.226,1.615-0.442,2.419-0.61c0.801-0.158,1.52-0.391,2.278-0.461c0.741-0.082,1.444-0.161,2.105-0.234
						c1.33-0.088,2.5-0.014,3.43,0.033c0.946,0.132,1.672,0.302,2.157,0.39c0.485,0.106,0.743,0.165,0.743,0.165l-0.012,0.398
						c0,0-1.009,0.055-2.776,0.147c-0.871,0.142-1.935,0.312-3.133,0.584c-1.184,0.344-2.524,0.71-3.94,1.274
						c-0.718,0.25-1.449,0.561-2.207,0.883c-0.758,0.316-1.541,0.652-2.345,1.008c-0.801,0.354-1.631,0.713-2.494,1.064
						c-0.429,0.178-0.862,0.357-1.301,0.539c-0.442,0.158-0.89,0.318-1.341,0.48c-0.458,0.157-0.887,0.33-1.381,0.479
						c-0.482,0.123-0.968,0.248-1.458,0.373c-0.495,0.077-0.993,0.154-1.495,0.232c-0.503,0.059-1.01,0.085-1.519,0.129
						c-2.032,0.113-4.091,0.021-6.121-0.033c-1.011-0.059-2.038-0.014-3.053-0.096c-1.025-0.061-2.047-0.122-3.06-0.183
						c-2.007-0.202-3.984-0.519-5.861-0.759c-0.942-0.127-1.867-0.252-2.773-0.375c-0.919-0.056-1.819-0.11-2.694-0.164
						c-1.729-0.203-3.349,0.079-4.85,0.292c-1.498,0.269-2.868,0.565-4.104,0.771c-0.614,0.116-1.193,0.205-1.737,0.261
						c-0.538,0.068-1.033,0.134-1.495,0.131c-0.456,0.012-0.867,0.033-1.219,0.031c-0.346-0.033-0.64-0.062-0.877-0.086
						c-0.477-0.045-0.73-0.07-0.73-0.07L388.08,94.647z"/>
				</g>
				<g>
					<path fill="#6ACFF6" d="M183.216,103.29c0.374-0.133,0.747-0.25,1.121-0.362c0.371-0.118,0.713-0.28,1.062-0.395
						c0.696-0.253,1.405-0.534,2.103-0.829c0.703-0.266,1.407-0.546,2.112-0.832c0.706-0.293,1.416-0.574,2.142-0.823l2.194-0.774
						c0.73-0.271,1.505-0.475,2.269-0.684c1.555-0.385,3.16-0.76,4.888-0.914c0.883-0.028,1.756-0.086,2.702,0.006
						c0.463,0.025,0.93,0.061,1.421,0.164c0.489,0.105,0.966,0.14,1.467,0.32l0.746,0.243l0.371,0.128l0.188,0.064l0.046,0.016
						l0.012,0.004l0.121,0.06l0.017,0.007l0.065,0.029l0.258,0.119l0.128,0.061l0.222,0.122c0.309,0.173,0.614,0.356,0.885,0.562
						c0.541,0.385,1.172,0.941,1.701,1.797c0.537,0.835,0.854,2.016,0.812,3.008c-0.03,0.998-0.292,1.786-0.546,2.388
						c-0.262,0.605-0.542,1.091-0.812,1.522c-0.539,0.838-1.049,1.506-1.522,2.092c-0.469,0.59-0.893,1.125-1.212,1.594
						c-0.325,0.475-0.549,0.865-0.633,1.064l-2.995-4.515c0.982,0.088,1.964,0.185,2.951,0.329l3.024,0.17l1.54-0.008l1.552,0.059
						l3.151-0.029c1.062-0.045,2.137-0.018,3.21-0.03c1.079-0.034,2.164-0.048,3.258-0.017c1.098,0.008,2.193,0.01,3.3,0.076
						c0.556,0.034,1.106,0.042,1.665,0.1c0.557,0.051,1.11,0.088,1.668,0.162l0.062,0.395l-6.375,1.148
						c-2.124,0.4-4.263,0.725-6.407,1.041l-3.229,0.383l-3.25,0.237l-3.263,0.046l-3.263-0.193l-0.47-0.027l0.148-0.457
						c0.502-1.562,1.51-2.775,2.418-3.977c0.459-0.601,0.927-1.187,1.326-1.797c0.386-0.607,0.739-1.26,0.763-1.889
						c0.034-0.622-0.328-1.18-0.896-1.588c-0.271-0.213-0.566-0.373-0.916-0.551c-0.312-0.141-0.671-0.263-1.003-0.396
						c-0.332-0.15-0.705-0.186-1.055-0.285c-0.353-0.1-0.719-0.143-1.086-0.184c-0.728-0.116-1.475-0.107-2.216-0.129
						c-0.745,0.031-1.489,0.046-2.236,0.135c-0.746,0.057-1.488,0.181-2.232,0.279c-1.484,0.24-2.966,0.521-4.446,0.83
						c-1.481,0.306-2.966,0.604-4.466,0.855c-0.748,0.129-1.5,0.238-2.263,0.324c-0.766,0.093-1.522,0.127-2.276,0.145
						L183.216,103.29z"/>
				</g>
			</g>
			<g>
				<path fill="#648AC7" d="M484.864,100.896c-1.533-24.512,20.157-42.155,43.789-39.166c20.468,2.582,7.749,10.24-2.306,15.556
					c-17.252,9.123-20.92,22.054-20.92,41.649c-3.863,5.585-13.939,6.16-20.216,2.477c-0.431-5.223-0.552-10.603-0.348-15.903"/>
				<path fill="#648AC7" d="M394.978,123.943c-35.641-41.19-118.558-32.616-153.766,6.574c-3.246,5.813,18.185,10.233,30.711,10.371
					c12.823,0.138,29.532-0.79,42.673-0.81c24.73-0.039,64.512,5.928,85.854-7.49L394.978,123.943z"/>
				<path fill="#648AC7" d="M193.313,133.166c-2.869-6.816-6.259-14.139-11.171-19.944c-5.916-7.026-12.896-13.013-22.206-14.682
					c-21.589-3.869-40.072,9.102-36.567,31.972c3.609,0.987,9.473,0.987,13.076,0c0.209-11.241,12.72-13.194,21.383-10.703
					c4.854,1.399,7.441,4.399,9.982,8.663c0.369,0.615,3.69,8.915,4.012,8.955C179.91,138.493,186.592,138.489,193.313,133.166z"/>
				<path fill="#648AC7" d="M73.466,133.166c0-15.226-8.416-19.294-18.066-21.013c-10.722-1.911-25.909,7.422-24.212,18.358
					c2.84,1.007,7.953,0.955,10.773-0.046c0.456-0.178,0.451-2.156,0.569-2.585c0.766-2.776,3.516-4.423,6.102-5.169
					c3.079-0.891,6.276,0.104,8.857,1.834c4.847,3.252,4.469,8.62,4.453,8.62H73.466z"/>
				<g>
					<path fill="#3FBCED" d="M398.836,129.8c-0.998-3.18-10.487-21.703-17.217-29.715c-4.391-5.224-8.732-10.541-14.291-14.485
						c-4.922-3.495-9.574-6.425-15.208-8.456c2.099,1.922,3.688,6.855,2.755,8.489c-0.919,1.608-3.146,1.599-4.843,1.724
						c-2.327,0.168-3.547-0.984-5.41-2.17c-8.315-5.275-16.123-10.412-26.484-9.939c2.144,0.146,5.952,4.986,4.274,7.15
						c-1.535,1.98-8.276,1.978-10.406,1.443c-6.94-1.734-13.334-4.078-20.591-3.98c-2.257,0.031-4.516,0.705-6.69,0.645
						c2.432,0.926,6.075,1.603,6.549,4.836c0.583,3.996-5.467,3.908-8.032,4.033c-8.445,0.412-16.559-0.761-24.112,4.053
						c2.963-0.107,6.662,0.086,8.742,2.572c2.565,3.068-2.456,4.906-4.593,5.862c-2.806,1.258-6.012,2.087-8.892,3.413
						c-2.518,1.162-6.479,4.016-7.622,6.609c2.089-0.614,4.285-1.543,5.046,1.098c0.676,2.35-0.918,4.091-2.605,5.422
						c-3.979,3.133-10.242,4.086-12.993,8.773c1.167,0.119,4.587-1.38,5.455,0.217c0.557,1.021-0.674,2.352-1.013,3.074
						c7.624-5.152,14.735-11.135,22.664-16.096c13.281-8.299,30.384-11.873,45.768-12.82c15.515-0.951,32.035-1.434,47.144,2.752
						c12.263,3.393,24.896,9.165,34.142,18.092c2.332,2.254,5.857,6.947,8.638,8.744C399.009,131.14,398.976,130.252,398.836,129.8z
						"/>
				</g>
				<path fill="#3FBCED" d="M513.958,62.868c-2.588-0.52-5.069-1.884-7.767-2.307c-3.633-0.564-7.56-0.336-11.223-0.062
					c-3.609,0.271-7.487,0.748-10.729,2.31c-2.845,1.363-7.974,4.173-9.393,7.163c2.105,0.584,4.795,0.063,6.93,1.007
					c2.016,0.894,4.717,3.394,3.982,5.985c-0.628,2.218-4.222,3.315-5.779,4.893c-2.473,2.486-3.936,6.128-4.855,9.439
					c1.841,0.007,4.547-1.408,6.021,0.381c0.621,0.76,0.805,2.432,0.552,3.398c-0.336,1.315-1.548,2.154-2.298,3.293
					c-0.894,1.354-1.29,3.256-1.217,4.883c1.166,0.164,2.427-1.195,3.822-0.645c1.222,0.482,1.445,1.732,1.767,2.835
					c0.541,1.858,0.666,4.091,1.1,6.031c-0.007-4.552,0.838-9.298,1.205-13.897c0.437-5.463,2.344-11.521,4.617-16.484
					c2.388-5.212,5.715-9.696,10.516-12.814c4.166-2.705,9.608-2.065,13.613-4.83L513.958,62.868z"/>
				<path fill="#3FBCED" d="M190.439,131.724c0.531-1.628,0.903-3.589,1.082-5.281c0.411-4.007,1.221-9.188-0.883-12.807
					c-0.771,4.143-5.616,10.984-6.833,3.396c-0.307-1.89,0.104-3.545,0-5.465c-0.132-2.271-1.822-6.492-3.691-7.8
					c-0.452,2.14,1.265,5.522-2.056,6.438c-2.82,0.783-3.898-2.503-4.909-4.412c-2.35-4.41-5.141-7.989-9.712-10.056
					c1.429,1.075,2.135,3.774,0.203,4.526c-1.932,0.748-4.124-0.632-5.48-1.815c-1.347-1.175-2.547-2.161-4.313-2.737
					c-1.43-0.463-4.984-1.304-6.236-0.278c1.933,0.05,1.955,2.315,1.882,3.683c-1.117,0.062-2.017,0.54-3.133,0.631
					c-1.55,0.129-2.83-0.451-4.334-0.586c-2.863-0.252-4.995-0.078-7.336,1.472c1.469-0.032,3.131-0.062,2.743,1.994
					c-0.278,1.464-1.699,1.577-2.89,2.008c-3.261,1.159-5.941,1.806-7.929,5.071c0.533,0.02,1.06,0.237,1.626,0.07
					c0.697,0.976-0.488,1.562-0.971,2.348c-0.658,1.067-0.853,1.521-1.065,2.869c2.839-2.973,4.849-5.807,8.632-7.848
					c2.929-1.574,5.622-3.391,8.883-4.241c6.539-1.698,11.913-0.257,17.906,2.026c4.537,1.732,8.677,4.503,12.093,8.004
					c3.779,3.87,5.596,9.415,7.493,14.467c0.943,2.512,2.095,4.994,3.107,7.475c0.625,1.531,0.472,2.453,2.382,1.822
					C188.999,135.939,189.738,133.884,190.439,131.724z"/>
				<path fill="#3FBCED" d="M73.466,133.091c-0.016-0.74,0.584-1.586,0.783-2.289c0.312-1.055,0.442-2.215,0.516-3.309
					c0.122-1.807-0.325-3.469-1.066-5.094c-0.054,0.406,0.045,0.826-0.009,1.227c-0.075,0.508-0.379,0.77-0.463,1.248
					c-1.011,0.045-1.182-0.129-1.389-1.203c-0.195-0.992-0.225-2.049-0.458-3.051c-0.327-1.418-1.151-3.16-2.135-4.232
					c0.015,0.627,0.284,1.859-0.293,2.313c-0.471,0.378-1.152,0.13-1.458-0.299c-0.538-0.739-0.988-1.598-1.516-2.356
					c-0.71-1.027-1.658-1.916-2.562-2.761c-1.007-0.929-2.009-0.849-3.104-1.39c1.044,0.643,0.57,1.357-0.363,1.425
					c-0.692,0.049-1.201-0.214-1.722-0.675c-0.743-0.661-1.307-1.186-2.263-1.57c-0.883-0.354-1.982-0.307-2.914-0.371
					c0.55-0.327,0.942,1.125,0.432,1.434c-0.432,0.262-2.121-0.688-2.606-0.768c-1.803-0.289-3.352,0.332-4.939,1.174
					c0.784,0.006,1.684-0.475,2.462-0.282c0,0.251-0.04,0.503-0.128,0.737c-0.18,0.059-0.22,0.147-0.367,0.223
					c0.848-0.429,3.335,0.33,4.238,0.451c4.311,0.582,8.339,1.896,11.785,4.642c4.364,3.478,6.673,8.503,7.591,13.879
					c0.05,0.314,0.057,0.593,0.15,0.886c0.63,0.039,1.271,0.012,1.905,0.012"/>
			</g>
		</g>
		<circle fill="#003858" cx="512.176" cy="72.242" r="2.646"/>
	</g>
	<g>
		<path d="M548.404,15.298l-0.173,0.023c-0.267,0.036-0.45-0.13-0.551-0.498l-0.012-0.087c-0.041-0.302,0.124-0.5,0.492-0.594
			c0.382,0,0.59,0.133,0.626,0.4l0.029,0.215C548.808,15.083,548.67,15.262,548.404,15.298z M550.87,33.614l-0.216,0.029
			c-0.333-0.073-0.527-0.328-0.586-0.768l-1.969-14.621l-0.154-0.815c-0.023-0.768,0.129-1.172,0.453-1.216
			c0.352-0.048,0.604,0.303,0.757,1.054l2.079,15.441C551.29,33.137,551.168,33.435,550.87,33.614z"/>
		<path d="M550.341,8.447l0.736-0.1c2.045-0.275,3.48,0.251,4.304,1.577c0.169,0.382,0.275,0.733,0.319,1.058
			c0.207,1.541-0.61,2.885-2.451,4.027l0.012,0.086c2.786,0.864,4.334,2.445,4.644,4.744c0.279,2.074-0.422,3.842-2.103,5.3
			c-0.976,0.659-1.949,1.055-2.922,1.186c-0.417-0.046-0.644-0.208-0.681-0.481l-2.263-16.814
			C549.969,8.673,550.105,8.479,550.341,8.447z M551.235,9.515l0.006,0.044l0.607,4.847l0.044-0.006
			c1.916-1.021,2.801-2.079,2.653-3.173c-0.129-0.959-0.703-1.513-1.721-1.661C552.558,9.484,552.027,9.468,551.235,9.515z
			 M552.064,16.004l1.21,8.991c0.871-0.117,1.736-0.659,2.597-1.625c0.736-1.067,1.02-2.235,0.85-3.504
			C556.468,18.001,554.917,16.714,552.064,16.004z"/>
		<path d="M560.706,13.434l0.216-0.029c0.26-0.035,0.444,0.131,0.551,0.498c-0.002,0.411-0.148,0.636-0.437,0.675l-0.13,0.018
			c-0.346,0.046-0.547-0.146-0.605-0.579C560.333,13.659,560.468,13.465,560.706,13.434z M560.969,15.07l0.13-0.018
			c0.238-0.032,0.418,0.104,0.54,0.411l1.129,8.386l0.106,0.47c0.002,0.44-0.186,0.686-0.561,0.736
			c-0.353,0.047-0.573-0.173-0.66-0.66l-1.17-8.688C560.462,15.329,560.624,15.116,560.969,15.07z"/>
		<path d="M566.667,14.479l0.389-0.052c0.872-0.117,1.747,0.177,2.627,0.878c0.272,0.279,0.431,0.581,0.474,0.905
			c0.041,0.303-0.534,0.937-1.725,1.904l-2.9,2.636c0.085,0.626,0.392,1.274,0.922,1.943c0.493,0.345,0.981,0.483,1.465,0.418
			c0.856-0.115,1.455-0.898,1.795-2.353c0.107-0.132,0.214-0.205,0.322-0.22l0.173-0.023c0.387,0.043,0.601,0.206,0.638,0.486
			c0.069,0.512-0.294,1.308-1.087,2.391c-0.554,0.516-1.144,0.814-1.771,0.898c-1.21,0.163-2.204-0.35-2.979-1.535
			c-0.404-0.811-0.66-1.627-0.771-2.449l-0.093-0.691c-0.234-2.388,0.311-4.003,1.636-4.84
			C566.126,14.611,566.421,14.512,566.667,14.479z M565.301,19.373l3.522-3.248c-0.569-0.422-1.164-0.592-1.783-0.508l-0.088,0.012
			c-1.094,0.146-1.646,1.176-1.652,3.083L565.301,19.373z"/>
		<path d="M579.084,22.798l-0.215,0.029c-0.245,0.032-0.427-0.12-0.545-0.456l-0.742-5.181c-0.197-1.47-0.815-2.354-1.854-2.654
			h-0.66c-0.706,0.095-1.266,0.729-1.68,1.898l0.218,1.951l0.232,1.729l0.416,2.761c0.039,0.288-0.138,0.503-0.529,0.645
			c-0.404,0.054-0.641-0.179-0.71-0.697l-1.129-8.386c-0.055-0.403,0.134-0.634,0.566-0.691c0.324-0.044,0.543,0.161,0.656,0.614
			l0.043-0.006c0.502-0.565,1.117-0.898,1.846-0.996c1.419-0.19,2.522,0.497,3.314,2.062c0.247,0.531,0.451,1.398,0.613,2.602
			l0.571,4.236C579.488,22.581,579.352,22.762,579.084,22.798z"/>
		<path d="M580.887,12.564l0.129-0.018c0.324-0.043,0.65,0.412,0.977,1.365l2.535,5.424l0.041-0.006
			c0.695-4.647,1.09-7.062,1.184-7.243l0.326-0.177l0.174-0.023c0.355,0.025,0.551,0.176,0.588,0.449
			c-0.09,0.855-0.58,3.973-1.469,9.352c-0.1,0.188-0.275,0.301-0.527,0.335c-0.359,0.049-0.723-0.461-1.086-1.526
			c-2.213-4.667-3.336-7.127-3.369-7.38C580.352,12.85,580.518,12.666,580.887,12.564z"/>
		<path d="M591.41,11.148l0.389-0.053c0.873-0.117,1.748,0.177,2.629,0.878c0.271,0.28,0.43,0.581,0.473,0.905
			c0.041,0.303-0.535,0.937-1.725,1.904l-2.9,2.636c0.084,0.626,0.391,1.274,0.922,1.943c0.492,0.345,0.982,0.483,1.465,0.419
			c0.855-0.115,1.455-0.899,1.795-2.354c0.107-0.132,0.215-0.205,0.322-0.22l0.172-0.023c0.389,0.044,0.602,0.206,0.639,0.486
			c0.068,0.512-0.295,1.308-1.086,2.391c-0.555,0.516-1.145,0.814-1.771,0.899c-1.211,0.162-2.203-0.35-2.979-1.536
			c-0.402-0.811-0.66-1.627-0.771-2.448l-0.092-0.691c-0.234-2.389,0.311-4.004,1.635-4.841
			C590.871,11.28,591.166,11.181,591.41,11.148z M590.045,16.042l3.523-3.247c-0.57-0.423-1.164-0.593-1.783-0.509l-0.088,0.012
			c-1.094,0.147-1.646,1.176-1.652,3.083V16.042z"/>
		<path d="M603.83,19.467l-0.215,0.029c-0.246,0.032-0.428-0.12-0.547-0.456l-0.742-5.181c-0.197-1.47-0.814-2.354-1.852-2.654
			h-0.66c-0.707,0.095-1.268,0.729-1.682,1.898l0.219,1.951l0.232,1.729L599,19.544c0.039,0.288-0.139,0.503-0.529,0.645
			c-0.404,0.054-0.641-0.179-0.709-0.697l-1.129-8.386c-0.055-0.403,0.133-0.634,0.566-0.691c0.324-0.044,0.541,0.161,0.654,0.614
			l0.043-0.006c0.504-0.565,1.119-0.897,1.846-0.996c1.42-0.19,2.523,0.497,3.316,2.062c0.246,0.531,0.451,1.398,0.611,2.602
			l0.57,4.236C604.234,19.25,604.098,19.431,603.83,19.467z"/>
		<path d="M606.383,7.284l0.215-0.028c0.26-0.035,0.443,0.131,0.551,0.498c-0.002,0.411-0.148,0.636-0.438,0.675l-0.129,0.017
			c-0.346,0.047-0.547-0.146-0.605-0.578C606.008,7.511,606.145,7.316,606.383,7.284z M606.645,8.922l0.131-0.018
			c0.238-0.032,0.418,0.104,0.541,0.411l1.129,8.386l0.105,0.47c0.002,0.44-0.186,0.686-0.561,0.735
			c-0.354,0.048-0.574-0.172-0.66-0.659l-1.17-8.688C606.139,9.181,606.299,8.968,606.645,8.922z"/>
		<path d="M613.82,0.034l0.217-0.029c0.268-0.036,0.451,0.13,0.553,0.499l0.418,3.111l1.473,10.628l0.359,2.988
			c0.033,0.237-0.162,0.424-0.584,0.562c-0.355-0.033-0.553-0.183-0.588-0.45c-0.553,0.427-1.076,0.674-1.572,0.741l-0.391,0.052
			c-1.605,0.217-2.809-0.868-3.607-3.254l-0.283-1.459l-0.104-0.779c-0.232-1.721,0.307-3.04,1.621-3.959
			c0.379-0.196,0.758-0.321,1.139-0.372l0.043-0.006c0.648-0.088,1.32,0.102,2.014,0.565l-0.268-1.988l-0.875-6.176
			C613.395,0.298,613.541,0.072,613.82,0.034z M610.959,13.094c0.258,1.916,0.834,3.145,1.727,3.685
			c0.295,0.165,0.639,0.221,1.037,0.168l0.041-0.006c0.801-0.107,1.359-0.534,1.678-1.282l-0.611-4.537
			c-0.195-0.584-0.629-1.068-1.297-1.455c-0.357-0.156-0.676-0.217-0.947-0.18c-1.082,0.145-1.654,1.015-1.717,2.607L610.959,13.094
			z"/>
		<path d="M620.953,7.171l0.391-0.052c1.273-0.172,2.275,0.721,3,2.676c0.189,0.524,0.334,1.18,0.441,1.966l0.074,0.562
			c0.314,2.334-0.348,3.846-1.984,4.536l-0.385,0.097l-0.346,0.046c-1.34,0.181-2.418-0.54-3.238-2.161
			c-0.193-0.554-0.316-1.035-0.371-1.445l-0.109-0.822c-0.314-2.334,0.139-3.979,1.357-4.936
			C620.254,7.368,620.645,7.213,620.953,7.171z M619.668,12.978c0.279,2.074,1.139,3.015,2.58,2.821
			c1.008-0.137,1.494-1.097,1.461-2.881l-0.193-1.427c-0.281-1.877-0.879-2.939-1.793-3.191l-0.438,0.015
			C619.814,8.513,619.275,10.066,619.668,12.978z"/>
		<path d="M580.922,24.6l0.129-0.018c0.297-0.04,0.498,0.153,0.607,0.578l0.396,2.939l-0.039,0.049l0.051,0.037l-0.016,0.223
			l0.652,4.84c0.57-0.604,1.213-0.954,1.926-1.051c1.24-0.166,2.268,0.385,3.084,1.653c0.326,0.249,0.705,1.974,1.135,5.172
			l0.268,1.989c-0.002,0.41-0.176,0.64-0.523,0.687c-0.402,0.055-0.641-0.192-0.715-0.741l-0.512-3.803
			c-0.273-2.039-0.705-3.169-1.293-3.39c-0.383-0.331-0.84-0.46-1.373-0.389c-0.785,0.106-1.352,0.798-1.699,2.077l0.779,5.791
			l0.096,0.385c0,0.439-0.188,0.685-0.561,0.735c-0.311,0.042-0.525-0.134-0.645-0.53l-2.234-16.598
			C580.414,24.857,580.576,24.646,580.922,24.6z"/>
		<path d="M590.438,31.46l0.217-0.029c0.244-0.033,0.426,0.119,0.545,0.454l0.742,5.181c0.197,1.471,0.814,2.355,1.852,2.656
			l0.66-0.002c0.707-0.095,1.268-0.727,1.682-1.898l-0.219-1.951l-0.232-1.729l-0.416-2.76c-0.039-0.296,0.137-0.511,0.529-0.644
			c0.404-0.055,0.641,0.178,0.711,0.697l1.129,8.385c0.053,0.404-0.135,0.634-0.566,0.692c-0.324,0.043-0.545-0.162-0.656-0.616
			l-0.043,0.006c-0.504,0.567-1.119,0.899-1.846,0.997c-1.42,0.191-2.525-0.497-3.314-2.063c-0.248-0.531-0.453-1.397-0.615-2.601
			l-0.57-4.236C590.033,31.676,590.172,31.495,590.438,31.46z"/>
		<path d="M598.826,29.626l0.217-0.028c0.324,0.008,0.504,0.145,0.541,0.411l0.104,0.778c0.4-0.465,0.893-0.736,1.477-0.815
			c0.734-0.099,1.467,0.229,2.199,0.979c0.416-0.936,1.035-1.458,1.857-1.569l0.086-0.011c1.354-0.183,2.375,0.75,3.061,2.8
			l0.172,0.944l0.736,5.138c-0.008,0.383-0.156,0.594-0.443,0.633l-0.174,0.022c-0.311,0.042-0.51-0.137-0.6-0.535l-0.176-1.296
			l-0.635-4.403c-0.102-0.756-0.486-1.424-1.15-2.002c-0.279-0.109-0.549-0.146-0.809-0.112c-0.338,0.046-0.686,0.504-1.047,1.374
			l-0.09,0.628l0.244,1.156l0.74,5.181c0.041,0.311-0.15,0.526-0.574,0.65c-0.309,0.041-0.523-0.136-0.641-0.53l-0.152-1.124
			l-0.666-4.619c-0.439-1.524-1.049-2.235-1.828-2.131c-0.648,0.088-1.066,0.789-1.256,2.105l0.738,5.489l0.127,0.6
			c-0.002,0.44-0.188,0.686-0.562,0.735c-0.354,0.048-0.574-0.172-0.66-0.658l-1.234-9.164
			C598.428,29.871,598.561,29.662,598.826,29.626z"/>
		<path d="M612.947,28.43l0.475-0.064c1.152-0.154,2.178,0.382,3.078,1.61c0.355,0.678,0.594,1.483,0.719,2.411l0.162,1.519
			l0.129,0.644l0.195,1.777l0.082,0.604c0.07,0.519-0.111,0.808-0.543,0.866c-0.311,0.041-0.525-0.135-0.645-0.53l-0.041-0.303
			l-0.041,0.006c-0.809,0.755-1.674,1.194-2.596,1.319l-0.131,0.018c-0.979,0.131-1.699-0.198-2.156-0.986
			c-0.285-0.586-0.455-1.091-0.512-1.517c-0.211-1.556,0.396-2.825,1.818-3.81c0.227-0.124,0.562-0.244,1.01-0.355
			c0.574-0.077,1.225,0.056,1.945,0.398l0.043-0.006l-0.006-0.044c-0.18-1.332-0.816-2.141-1.912-2.426
			c-0.137-0.04-0.328-0.044-0.572-0.012l-0.088,0.012c-0.719,0.097-1.154,0.464-1.303,1.101c-0.152,0.343-0.283,0.785-0.393,1.328
			c-0.137,0.136-0.287,0.215-0.453,0.237c-0.385-0.022-0.594-0.169-0.631-0.442c-0.072-0.527,0.186-1.338,0.771-2.437
			C611.875,28.809,612.406,28.502,612.947,28.43z M612.305,35.425l0.047,0.346c0.115,0.864,0.455,1.319,1.018,1.359l0.395-0.009
			c0.887-0.12,1.746-0.704,2.58-1.756l-0.049-0.698l-0.006-0.042c-0.135-1.002-0.67-1.59-1.604-1.765l-0.572-0.011
			c-0.908,0.123-1.504,0.818-1.787,2.088C612.283,35.062,612.277,35.223,612.305,35.425z"/>
		<path d="M625.947,36.67l-0.215,0.029c-0.246,0.032-0.428-0.12-0.545-0.456l-0.742-5.181c-0.197-1.47-0.816-2.354-1.854-2.654
			h-0.66c-0.707,0.095-1.266,0.729-1.68,1.898l0.217,1.951l0.232,1.729l0.418,2.761c0.037,0.288-0.139,0.503-0.531,0.645
			c-0.404,0.054-0.641-0.179-0.709-0.697l-1.129-8.386c-0.055-0.403,0.135-0.634,0.566-0.691c0.324-0.044,0.541,0.161,0.656,0.614
			l0.041-0.006c0.504-0.565,1.119-0.897,1.848-0.996c1.418-0.19,2.523,0.497,3.314,2.062c0.246,0.531,0.451,1.398,0.613,2.602
			l0.57,4.236C626.352,36.453,626.215,36.634,625.947,36.67z"/>
		<path d="M630.387,26.082l0.389-0.053c1.275-0.171,2.275,0.721,3.002,2.677c0.188,0.524,0.334,1.18,0.439,1.966l0.076,0.562
			c0.314,2.334-0.348,3.846-1.986,4.536l-0.383,0.096l-0.346,0.047c-1.342,0.181-2.42-0.54-3.238-2.161
			c-0.193-0.554-0.316-1.035-0.373-1.445l-0.109-0.822c-0.314-2.334,0.139-3.979,1.359-4.936
			C629.686,26.278,630.078,26.124,630.387,26.082z M629.1,31.889c0.279,2.074,1.139,3.015,2.58,2.82
			c1.008-0.136,1.496-1.096,1.461-2.88l-0.191-1.427c-0.283-1.877-0.881-2.94-1.795-3.191l-0.438,0.015
			C629.246,27.424,628.707,28.978,629.1,31.889z"/>
		<path d="M635.908,15.536l0.217-0.029c0.332,0.073,0.527,0.328,0.588,0.768l1.967,14.621l0.154,0.816
			c0.023,0.767-0.127,1.171-0.451,1.215c-0.354,0.048-0.605-0.303-0.758-1.052l-2.08-15.443
			C635.49,16.014,635.609,15.716,635.908,15.536z M638.375,33.853l0.172-0.023c0.268-0.036,0.451,0.13,0.553,0.498l0.012,0.087
			c0.039,0.302-0.125,0.5-0.494,0.594c-0.381,0.001-0.59-0.133-0.625-0.4l-0.029-0.217
			C637.971,34.068,638.107,33.889,638.375,33.853z"/>
	</g>
	<path fill="none" stroke="#000000" stroke-miterlimit="10" d="M575.614,53.614c0,8.605-9.393,15.569-21,15.569"/>
</g>
</svg>
