<?xml version="1.0" encoding="utf-8"?>
<!-- Generator: Adobe Illustrator 16.0.0, SVG Export Plug-In . SVG Version: 6.00 Build 0)  -->
<!DOCTYPE svg PUBLIC "-//W3C//DTD SVG 1.1//EN" "http://www.w3.org/Graphics/SVG/1.1/DTD/svg11.dtd">
<svg version="1.1" id="Layer_1" xmlns="http://www.w3.org/2000/svg" xmlns:xlink="http://www.w3.org/1999/xlink" x="0px" y="0px"
	 width="184.492px" height="198.394px" viewBox="0 0 184.492 198.394" enable-background="new 0 0 184.492 198.394"
	 xml:space="preserve">
<path opacity="0.3" fill="#00C0F3" d="M184.492,183.394c0,8.284-6.717,15-15,15H15c-8.283,0-15-6.716-15-15V21.403
	c0-8.284,6.717-15,15-15h154.492c8.283,0,15,6.716,15,15V183.394z"/>
<path fill="#FFFFFF" d="M184.492,176.99c0,8.284-6.717,15-15,15H15c-8.283,0-15-6.716-15-15V15C0,6.716,6.717,0,15,0h154.492
	c8.283,0,15,6.716,15,15V176.99z"/>
<g id="_x39_4p99a_1_">
	<g>
		<path fill-rule="evenodd" clip-rule="evenodd" fill="#87C077" d="M87.142,124.556c-5.853-0.08-9.938-2.557-12.921-6.719
			c-1.942-2.711-3.439-5.743-5.076-8.666c-4.174-7.451-8.332-14.913-12.452-22.394c-0.54-0.978-1.046-2.062-1.192-3.148
			c-0.275-2.042,1.123-3.313,3.18-3.101c2.082,0.216,3.654,1.316,4.908,2.936c2.522,3.255,4.998,6.549,7.594,9.743
			c0.965,1.188,2.18,2.183,3.357,3.175c0.329,0.277,1.131,0.459,1.363,0.266c0.318-0.27,0.484-0.975,0.392-1.426
			c-0.237-1.133-0.519-2.297-1.022-3.33c-3.789-7.793-7.631-15.56-11.469-23.328c-1.381-2.795-0.85-5.07,1.497-6.248
			c2.384-1.195,5.489-0.165,6.729,2.328c1.363,2.746,2.635,5.539,3.938,8.315c1.885,4.007,3.717,8.038,5.671,12.009
			c0.575,1.171,1.446,2.207,2.275,3.232c0.214,0.265,0.835,0.42,1.161,0.307c0.254-0.086,0.512-0.683,0.475-1.018
			c-0.158-1.372-0.26-2.784-0.685-4.084c-2.644-8.111-5.371-16.195-8.067-24.288c-0.775-2.326-0.115-4.501,1.717-5.713
			c2.637-1.746,5.914-0.519,6.996,2.645c1.985,5.801,3.949,11.608,5.924,17.411c0.822,2.422,1.585,4.869,2.502,7.258
			c0.445,1.162,1.066,2.294,1.81,3.292c0.703,0.948,1.554,0.735,1.659-0.437c0.128-1.393,0.096-2.855-0.19-4.223
			c-1.642-7.856-3.394-15.691-5.081-23.538c-0.628-2.921,1.744-5.959,4.672-6.058c2.162-0.074,3.687,1.16,4.293,3.525
			c1.475,5.754,2.936,11.512,4.399,17.27c1.417,5.572,2.825,11.148,4.255,16.717c0.141,0.543,0.356,1.092,0.654,1.562
			c0.449,0.707,1.184,0.787,1.77,0.189c0.391-0.396,0.701-0.896,0.965-1.394c1.26-2.374,2.488-4.768,3.738-7.147
			c1.518-2.894,4.113-3.975,7.24-3.031c1.746,0.527,2.441,1.974,1.686,3.64c-1.959,4.319-3.945,8.626-5.924,12.938
			c-2.424,5.288-4.863,10.571-7.271,15.869c-2.309,5.079-6.084,8.594-11.309,10.479c-3.773,1.358-7.594,2.587-11.422,3.785
			C88.84,124.479,87.701,124.479,87.142,124.556z"/>
		<path fill-rule="evenodd" clip-rule="evenodd" fill="#87C077" d="M127.026,142.226c-4.146,0-8.167,0-12.188,0
			c-7.793,0-15.586-0.015-23.379,0.014c-0.752,0.003-1.115-0.217-1.404-0.912c-0.639-1.547-1.4-3.041-2.08-4.572
			c-1.146-2.582-0.049-5.286,2.6-6.286c7.239-2.735,14.486-5.45,21.74-8.146c2.303-0.856,4.656,0.026,5.754,2.164
			c2.94,5.74,5.843,11.499,8.76,17.252C126.883,141.847,126.92,141.964,127.026,142.226z"/>
	</g>
</g>
</svg>
