<?xml version="1.0" encoding="utf-8"?>
<!-- Generator: Adobe Illustrator 16.0.0, SVG Export Plug-In . SVG Version: 6.00 Build 0)  -->
<!DOCTYPE svg PUBLIC "-//W3C//DTD SVG 1.1//EN" "http://www.w3.org/Graphics/SVG/1.1/DTD/svg11.dtd">
<svg version="1.1" id="Layer_1" xmlns="http://www.w3.org/2000/svg" xmlns:xlink="http://www.w3.org/1999/xlink" x="0px" y="0px"
	 width="184.492px" height="198.394px" viewBox="0 0 184.492 198.394" enable-background="new 0 0 184.492 198.394"
	 xml:space="preserve">
<g>
	<path opacity="0.3" fill="#00C0F3" d="M184.492,183.394c0,8.284-6.717,15-15,15H15c-8.283,0-15-6.716-15-15V21.403
		c0-8.284,6.717-15,15-15h154.492c8.283,0,15,6.716,15,15V183.394z"/>
	<path fill="#FFFFFF" d="M184.492,176.99c0,8.284-6.717,15-15,15H15c-8.283,0-15-6.716-15-15V15C0,6.716,6.717,0,15,0h154.492
		c8.283,0,15,6.716,15,15V176.99z"/>
	<path fill="#F15D5F" d="M120.444,74.347c-11.531,0-20.959,9.07-21.586,20.453c-2.32-1.146-4.852-1.807-6.682-1.807
		c-1.797,0-4.266,0.633-6.548,1.736c-0.657-11.348-10.071-20.383-21.581-20.383c-11.939,0-21.649,9.711-21.649,21.648
		c0,11.939,9.71,21.648,21.649,21.648c10.941,0,19.982-8.162,21.424-18.709c1.906-1.336,4.619-2.342,6.705-2.342
		c2.14,0,4.949,1.062,6.856,2.439c1.491,10.506,10.513,18.611,21.411,18.611c11.938,0,21.648-9.709,21.648-21.648
		C142.093,84.058,132.383,74.347,120.444,74.347z M64.048,110.444c-7.969,0-14.45-6.482-14.45-14.449s6.481-14.449,14.45-14.449
		c7.966,0,14.449,6.482,14.449,14.449S72.014,110.444,64.048,110.444z M120.444,110.444c-7.967,0-14.449-6.482-14.449-14.449
		s6.482-14.449,14.449-14.449c7.969,0,14.449,6.482,14.449,14.449S128.413,110.444,120.444,110.444z"/>
</g>
</svg>
