<?xml version="1.0" encoding="utf-8"?>
<!-- Generator: Adobe Illustrator 16.0.0, SVG Export Plug-In . SVG Version: 6.00 Build 0)  -->
<!DOCTYPE svg PUBLIC "-//W3C//DTD SVG 1.1//EN" "http://www.w3.org/Graphics/SVG/1.1/DTD/svg11.dtd">
<svg version="1.1" id="Layer_1" xmlns="http://www.w3.org/2000/svg" xmlns:xlink="http://www.w3.org/1999/xlink" x="0px" y="0px"
	 width="184.492px" height="198.394px" viewBox="0 0 184.492 198.394" enable-background="new 0 0 184.492 198.394"
	 xml:space="preserve">
<path opacity="0.3" fill="#00C0F3" d="M184.492,183.394c0,8.284-6.717,15-15,15H15c-8.283,0-15-6.716-15-15V21.403
	c0-8.284,6.717-15,15-15h154.492c8.283,0,15,6.716,15,15V183.394z"/>
<path fill="#FFFFFF" d="M184.492,176.99c0,8.284-6.717,15-15,15H15c-8.283,0-15-6.716-15-15V15C0,6.716,6.717,0,15,0h154.492
	c8.283,0,15,6.716,15,15V176.99z"/>
<g>
	<path fill="#F89A3E" d="M94.953,74.81c0,9.178-7.442,16.619-16.62,16.619c-9.186,0-16.619-7.441-16.619-16.619
		S69.147,58.19,78.333,58.19C87.511,58.19,94.953,65.632,94.953,74.81z"/>
	<path fill="#F89A3E" d="M56.89,133.565v-18.059c0-11.842,9.594-21.443,21.443-21.443l0,0c11.842,0,21.443,9.602,21.443,21.443
		v18.059"/>
	<path fill="#F89A3E" d="M127.603,97.296c0,6.59-5.344,11.938-11.937,11.938c-6.588,0-11.937-5.348-11.937-11.938
		c0-6.596,5.349-11.939,11.937-11.939C122.259,85.356,127.603,90.7,127.603,97.296z"/>
	<path fill="#F89A3E" d="M103.729,133.8v-10.051c0-6.592,5.349-11.939,11.937-11.939l0,0c6.593,0,11.937,5.348,11.937,11.939V133.8"
		/>
</g>
</svg>
