<?xml version="1.0" encoding="utf-8"?>
<!-- Generator: Adobe Illustrator 16.0.0, SVG Export Plug-In . SVG Version: 6.00 Build 0)  -->
<!DOCTYPE svg PUBLIC "-//W3C//DTD SVG 1.1//EN" "http://www.w3.org/Graphics/SVG/1.1/DTD/svg11.dtd">
<svg version="1.1" id="Layer_1" xmlns="http://www.w3.org/2000/svg" xmlns:xlink="http://www.w3.org/1999/xlink" x="0px" y="0px"
	 width="184.492px" height="198.394px" viewBox="0 0 184.492 198.394" enable-background="new 0 0 184.492 198.394"
	 xml:space="preserve">
<path opacity="0.3" fill="#00C0F3" d="M184.492,183.394c0,8.284-6.717,15-15,15H15c-8.283,0-15-6.716-15-15V21.403
	c0-8.284,6.717-15,15-15h154.492c8.283,0,15,6.716,15,15V183.394z"/>
<path fill="#FFFFFF" d="M184.492,176.99c0,8.284-6.717,15-15,15H15c-8.283,0-15-6.716-15-15V15C0,6.716,6.717,0,15,0h154.492
	c8.283,0,15,6.716,15,15V176.99z"/>
<g>
	<path fill="#00BBD3" d="M84.141,73.444l0.079-0.17c-11.783-12.079-43.767-6.447-43.767-6.447v71.704c0,0,3.91-8.866,43.812-9.472
		v-0.051l-0.121-54.681L84.141,73.444z"/>
	<path fill="#00BBD3" d="M132,65.946v44.875l-0.003,3.691l-3.649,0.523c-0.191,0.025-17.912,2.712-27.154,14.039
		c39.008,0.756,42.846,9.775,42.846,9.775V67.152C144.039,67.152,138.906,66.255,132,65.946z"/>
	<path fill="#00BBD3" d="M122.025,65.847V53.14c-22.979,0.485-31.894,21.18-31.894,21.18l0.021,8.398l0.098,46.279
		c9.773-15.07,31.775-18.176,31.775-18.176V65.847z"/>
</g>
</svg>
